<svg xmlns="http://www.w3.org/2000/svg" xmlns:xlink="http://www.w3.org/1999/xlink" viewBox="0 0 420.19 420"><defs><style>.cls-1,.cls-10,.cls-11,.cls-4,.cls-6{fill:none;}.cls-2{isolation:isolate;}.cls-3{clip-path:url(#clip-path);}.cls-10,.cls-11,.cls-4,.cls-6{stroke:#000;stroke-miterlimit:10;}.cls-4{stroke-width:1.2px;}.cls-5{clip-path:url(#clip-path-2);}.cls-7{font-size:18px;font-family:Helvetica, Helvetica;}.cls-8{fill:#f0a;}.cls-9{fill:#fef200;}.cls-10{stroke-dasharray:4 4;}.cls-11{stroke-dasharray:4.07 4.07;}.cls-12{fill:#e4e6e2;mix-blend-mode:multiply;}.cls-13{font-size:21px;font-family:OSP-DIN, OSP-DIN;}</style><clipPath id="clip-path"><polygon class="cls-1" points="211.07 49 92.15 56.56 39.23 163.34 105.25 262.55 224.18 254.99 277.09 148.21 211.07 49"/></clipPath><clipPath id="clip-path-2"><polygon class="cls-1" points="319.49 77.05 200.88 88.5 151.49 196.95 220.72 293.95 339.33 282.49 388.72 174.04 319.49 77.05"/></clipPath></defs><title>amerikanisches-und-europaisches</title><g class="cls-2"><g id="Layer_1" data-name="Layer 1"><g class="cls-3"><path class="cls-4" d="M3.69,38.92C8.48,64.35-3,68,2.67,93.13c5.91,25.44,16.91,23.37,23,50.49,6.28,27.41-4.06,28.09,3.16,55.25,7.41,27.46,17,28.1,24.24,57,7.39,29.12-1.23,27.33,7.18,56.25"/><path class="cls-4" d="M24.74,31c4.47,26.87-7,30.42-1.78,57,5.46,26.82,16.49,24.76,22,53.14,5.69,28.63-4.69,29.34,1.84,57.69,6.68,28.6,16.3,29.14,22.72,59,6.52,30.13-2.14,28.49,5.29,58.38"/><path class="cls-4" d="M45.82,23.37C50,51.61,38.47,55.06,43.31,82.94c5,28.13,16.07,26.1,21.06,55.67,5.11,29.78-5.32,30.54.53,60,5.95,29.7,15.61,30.14,21.2,61,5.64,31.08-3.06,29.59,3.39,60.4"/><path class="cls-4" d="M66.92,16C70.8,45.51,59.27,48.86,63.7,78c4.57,29.38,15.67,27.38,20.13,58.08,4.53,30.88-5.94,31.67-.78,62.21,5.22,30.74,14.94,31.09,19.69,62.9,4.76,32-4,30.64,1.49,62.32"/><path class="cls-4" d="M88.05,8.8c3.6,30.79-8,34-3.9,64.42,4.14,30.56,15.27,28.6,19.2,60.37,4,31.93-6.55,32.74-2.07,64.3,4.5,31.72,14.25,32,18.18,64.67s-4.9,31.65-.42,64.15"/><path class="cls-4" d="M109.19,1.91c3.35,32-8.23,35.11-4.55,66.64,3.72,31.68,14.89,29.76,18.31,62.54s-7.16,33.75-3.36,66.27,13.58,32.83,16.67,66.35-5.83,32.59-2.34,65.87"/><path class="cls-4" d="M130.36-4.72c3.1,33.08-8.49,36.11-5.18,68.73s14.52,30.87,17.42,64.6-7.75,34.7-4.62,68.12,12.9,33.63,15.16,67.93-6.76,33.48-4.26,67.49"/><path class="cls-4" d="M151.54-11.07c2.87,34.12-8.74,37-5.77,70.68s14.15,31.92,16.56,66.54S154,161.74,156.44,196s12.23,34.37,13.65,69.4c1.24,35.1-7.68,34.32-6.18,69"/><path class="cls-4" d="M172.74-17.13c2.66,35.09-9,37.88-6.33,72.49s13.79,32.9,15.71,68.37c1.73,35.51-8.93,36.41-7.14,71.47,1.62,35.13,11.56,35.06,12.15,70.77.35,35.75-8.61,35.1-8.12,70.44"/><path class="cls-4" d="M194-22.91c2.46,36-9.19,38.67-6.87,74.18,2.15,35.56,13.45,33.83,14.88,70.07,1.2,36.26-9.51,37.17-8.37,73,.91,35.84,10.89,35.7,10.65,72-.54,36.35-9.54,35.84-10.06,71.76"/><path class="cls-4" d="M215.19-28.38c2.28,36.84-9.38,39.37-7.38,75.72C209.6,83.71,220.93,82,221.89,119c.67,37-10.08,37.87-9.59,74.35.2,36.5,10.22,36.29,9.15,73.19-1.42,36.9-10.47,36.51-12,73"/><path class="cls-4" d="M236.43-33.56c2.12,37.62-9.56,40-7.85,77.14,1.44,37.12,12.8,35.51,13.29,73.11.15,37.58-10.64,38.5-10.8,75.61-.51,37.11,9.57,36.82,7.67,74.24-2.31,37.4-11.41,37.14-14,74.1"/><path class="cls-4" d="M257.69-38.42C259.66-.09,248,2.17,249.38,40c1.11,37.8,12.5,36.25,12.53,74.44-.35,38.16-11.18,39.08-12,76.76-1.21,37.65,8.91,37.3,6.18,75.19-3.2,37.85-12.34,37.71-15.9,75.1"/><path class="cls-4" d="M279-43c1.84,39-9.87,41.09-8.72,79.56C271,75,282.43,73.54,282,112.26c-.86,38.67-11.73,39.59-13.18,77.78-1.9,38.14,8.26,37.73,4.71,76-4.09,38.24-13.27,38.23-17.85,76"/><path class="cls-4" d="M300.23-47.17c1.72,39.53-10,41.51-9.11,80.56.47,39,11.91,37.56,11.07,76.76-1.35,39.11-12.26,40-14.34,78.68-2.6,38.58,7.61,38.11,3.23,76.77-5,38.58-14.2,38.68-19.81,76.81"/><path class="cls-4" d="M321.51-51c1.62,40-10.12,41.87-9.46,81.42.16,39.47,11.64,38.14,10.37,77.74-1.84,39.5-12.79,40.41-15.5,79.46-3.28,39,7,38.44,1.77,77.4-5.86,38.87-15.13,39.08-21.76,77.51"/><path class="cls-4" d="M-6.83,43c5,24.68-6.5,28.37-.63,52.78C-1.31,120.48,9.67,118.39,16,144.87c6.57,26.78-3.75,27.44,3.82,54,7.78,26.86,17.33,27.55,25,55.87,7.83,28.61-.77,26.74,8.11,55.16"/><path class="cls-4" d="M14.21,34.94c4.63,26.16-6.85,29.76-1.4,55.6,5.68,26.14,16.7,24.07,22.5,51.83,6,28-4.38,28.73,2.5,56.49,7,28,16.64,28.62,23.48,58,6.95,29.64-1.68,27.92,6.23,57.33"/><path class="cls-4" d="M35.28,27.16c4.31,27.57-7.19,31.07-2.15,58.29,5.23,27.48,16.28,25.44,21.54,54.41,5.4,29.22-5,30,1.18,58.87,6.31,29.16,16,29.64,22,60,6.08,30.61-2.6,29,4.34,59.39"/><path class="cls-4" d="M56.37,19.63c4,28.9-7.5,32.31-2.87,60.84,4.78,28.76,15.87,26.75,20.59,56.88,4.82,30.34-5.63,31.12-.13,61.13,5.59,30.22,15.28,30.62,20.45,62,5.2,31.53-3.52,30.12,2.44,61.37"/><path class="cls-4" d="M77.48,12.35c3.74,30.18-7.8,33.48-3.56,63.25,4.35,30,15.47,28,19.66,59.24,4.25,31.42-6.24,32.22-1.42,63.27,4.86,31.24,14.59,31.54,18.93,63.8,4.32,32.42-4.44,31.15.54,63.25"/><path class="cls-4" d="M98.62,5.32c3.47,31.39-8.1,34.58-4.23,65.55,3.92,31.13,15.08,29.19,18.75,61.47,3.68,32.43-6.86,33.25-2.71,65.3s13.91,32.41,17.42,65.52-5.37,32.13-1.38,65"/><path class="cls-4" d="M119.77-1.44c3.23,32.53-8.36,35.61-4.86,67.7s14.7,30.32,17.86,63.59-7.46,34.23-4,67.21,13.23,33.23,15.91,67.15-6.29,33-3.3,66.7"/><path class="cls-4" d="M141-7.93c3,33.61-8.62,36.58-5.48,69.72s14.33,31.4,17,65.59-8.05,35.15-5.26,69,12.56,34,14.4,68.68c1.68,34.75-7.22,33.91-5.22,68.27"/><path class="cls-4" d="M162.14-14.13c2.76,34.61-8.86,37.46-6.06,71.6s14,32.41,16.13,67.47c2,35.11-8.64,36-6.51,70.68s11.89,34.71,12.9,70.09c.79,35.43-8.14,34.72-7.15,69.74"/><path class="cls-4" d="M183.35-20.06c2.56,35.56-9.08,38.29-6.61,73.36S190.37,86.67,192,122.53c1.48,35.89-9.21,36.8-7.75,72.24,1.26,35.49,11.22,35.38,11.4,71.4-.09,36.06-9.08,35.48-9.09,71.12"/><path class="cls-4" d="M204.57-25.68c2.37,36.43-9.28,39-7.13,75,2,36,13.29,34.27,14.48,70.87.94,36.61-9.79,37.52-9,73.68.55,36.17,10.56,36,9.9,72.61-1,36.64-10,36.19-11,72.39"/><path class="cls-4" d="M225.81-31c2.2,37.24-9.47,39.71-7.62,76.45,1.61,36.75,13,35.11,13.68,72.39.42,37.27-10.35,38.2-10.2,75-.15,36.81,9.9,36.56,8.41,73.73-1.86,37.15-10.93,36.83-13,73.54"/><path class="cls-4" d="M247.06-36c2,38-9.65,40.32-8.09,77.8,1.28,37.46,12.65,35.88,12.91,73.79-.1,37.87-10.91,38.8-11.39,76.2-.86,37.38,9.23,37.07,6.92,74.73-2.76,37.63-11.87,37.43-14.92,74.61"/><path class="cls-4" d="M268.32-40.73c1.9,38.65-9.8,40.85-8.52,79,.94,38.11,12.35,36.6,12.16,75.06-.61,38.42-11.46,39.34-12.59,77.29-1.55,37.9,8.58,37.52,5.44,75.62-3.64,38.05-12.8,38-16.87,75.57"/><path class="cls-4" d="M289.59-45.1c1.78,39.25-9.94,41.31-8.92,80.07.62,38.7,12.06,37.26,11.43,76.23-1.11,38.89-12,39.81-13.76,78.24-2.25,38.37,7.93,37.93,4,76.41-4.52,38.42-13.73,38.46-18.82,76.43"/><path class="cls-4" d="M310.86-49.15c1.68,39.79-10.05,41.7-9.28,81,.32,39.23,11.78,37.86,10.72,77.27-1.6,39.32-12.53,40.23-14.92,79.08-2.95,38.78,7.28,38.29,2.49,77.1-5.41,38.74-14.66,38.89-20.78,77.18"/></g><g class="cls-5"><path class="cls-4" d="M94.84,109.42c6.59,16.19-5.89,24.65,2.44,40.86,8.9,17.31,20.79,12.77,30.37,34.8,10,23-.86,24.29,10.88,47.31,12.1,23.93,21.7,25.56,33.54,53,12,28.21,4.23,24.27,18,52.54"/><path class="cls-4" d="M117.79,90.85c6.29,19.86-6.26,28.05,1.53,47.75,8.28,20.67,20.31,16.18,29.08,41.14,9.09,25.77-1.93,27.21,8.65,52.84C167.9,259,177.67,260.35,188,289.91c10.42,30.21,2.47,26.7,14.39,56.8"/><path class="cls-4" d="M140.81,73c6.07,23.32-6.57,31.23.75,54.23,7.7,23.83,19.87,19.43,27.85,47.14,8.21,28.39-3,29.94,6.47,58,9.59,28.78,19.53,29.85,28.34,61.39,8.77,32.09.67,29,10.69,60.8"/><path class="cls-4" d="M163.89,55.9c5.91,26.58-6.79,34.18.09,60.29C171.15,143,183.45,138.7,190.7,169c7.34,30.86-4,32.5,4.3,62.92,8.34,31,18.45,31.79,25.72,65.18,7.11,33.83-1.14,31.14,6.93,64.55"/><path class="cls-4" d="M187,39.58c5.83,29.63-6.94,36.91-.43,66,6.69,29.62,19.12,25.42,25.65,58.12,6.51,33.15-5,34.86,2.19,67.44,7.09,33,17.37,33.6,23.09,68.71,5.41,35.45-3,33.14,3.1,68"/><path class="cls-4" d="M210.17,24.07c5.84,32.49-7,39.42-.8,71.19,6.26,32.24,18.82,28.17,24.67,63.1,5.71,35.28-5.95,37,.11,71.64,5.84,34.94,16.3,35.26,20.45,71.95,3.71,36.93-4.83,35-.77,71.26"/><path class="cls-4" d="M233.36,9.42c5.91,35.13-7,41.7-1,76,5.88,34.66,18.57,30.73,23.78,67.72,4.94,37.24-6.88,39-1.92,75.49,4.6,36.69,15.23,36.8,17.81,74.93,2,38.27-6.72,36.71-4.7,74.22"/><path class="cls-4" d="M256.56-4.34c6.06,37.55-6.88,43.75-1.13,80.4,5.56,36.9,18.37,33.13,23,72,4.19,39-7.79,40.85-3.91,79,3.36,38.3,14.18,38.2,15.18,77.62.25,39.49-8.62,38.28-8.69,76.91"/><path class="cls-4" d="M279.75-17.18c6.3,39.78-6.67,45.57-1.06,84.36,5.3,38.95,18.23,35.37,22.29,75.93,3.48,40.63-8.64,42.48-5.84,82.15,2.14,39.74,13.13,39.45,12.55,80-1.5,40.56-10.53,39.7-12.72,79.33"/><path class="cls-4" d="M302.94-29.06c6.62,41.78-6.4,47.16-.84,87.9,5.09,40.8,18.13,37.41,21.68,79.5,2.82,42.06-9.47,43.91-7.71,84.95.93,41,12.1,40.56,9.93,82.15-3.26,41.5-12.45,41-16.78,81.48"/><path class="cls-4" d="M326.1-39.95c7,43.58-6,48.52-.45,91,4.94,42.46,18.09,39.28,21.17,82.71,2.19,43.31-10.24,45.14-9.52,87.4-.27,42.16,11.08,41.53,7.33,84-5,42.3-14.39,42.08-20.89,83.34"/><path class="cls-4" d="M349.23-49.8c7.52,45.16-5.56,49.64.09,93.68,4.86,43.92,18.12,41,20.78,85.55,1.6,44.39-11,46.19-11.27,89.49-1.45,43.14,10.08,42.35,4.74,85.53-6.8,42.95-16.33,43-25,84.92"/><path class="cls-4" d="M372.31-58.59c8.11,46.52-5,50.53.8,95.91,4.84,45.19,18.21,42.49,20.5,88,1.05,45.29-11.68,47-12.95,91.22-2.61,43.94,9.1,43,2.18,86.77-8.58,43.46-18.29,43.85-29.19,86.22"/><path class="cls-4" d="M395.34-66.28C404.11-18.61,391-15.1,397,31.43c4.89,46.25,18.36,43.82,20.34,90.15.55,46-12.34,47.68-14.56,92.58-3.76,44.6,8.13,43.56-.36,87.72-10.36,43.83-20.25,44.5-33.38,87.24"/><path class="cls-4" d="M418.28-72.82c9.55,48.59-3.58,51.59,2.73,99.05,5,47.12,18.57,45,20.29,91.89.1,46.54-12.94,48.14-16.08,93.58-4.88,45.09,7.19,43.94-2.88,88.37-12.13,44.05-22.21,45-37.59,88"/><path class="cls-4" d="M441.14-78.19c10.41,49.3-2.71,51.76,4,100C450.31,69.54,464,67.7,465.47,115c-.31,46.89-13.49,48.39-17.53,94.2-6,45.41,6.28,44.17-5.36,88.71-13.91,44.13-24.16,45.32-41.81,88.39"/><path class="cls-4" d="M83.39,119c6.76,14.29-5.67,22.88,2.94,37.27,9.23,15.57,21.06,11,31.05,31.51,10.46,21.52-.31,22.77,12,44.42,12.72,22.63,22.24,24.41,34.83,50.74,12.84,27.16,5.1,23,19.8,50.32"/><path class="cls-4" d="M106.31,100.05c6.43,18-6.09,26.38,2,44.35,8.59,19,20.55,14.5,29.72,38,9.54,24.4-1.4,25.78,9.76,50.12,11.48,25.2,21.16,26.68,32.25,55.2,11.23,29.23,3.35,25.5,16.21,54.7"/><path class="cls-4" d="M129.29,81.84c6.17,21.61-6.42,29.66,1.12,51,8,22.28,20.09,17.83,28.46,44.18,8.64,27.11-2.45,28.6,7.56,55.49,10.22,27.62,20.08,28.82,29.65,59.39,9.59,31.17,1.57,27.86,12.54,58.83"/><path class="cls-4" d="M152.35,64.35c6,25-6.69,32.74.39,57.32,7.44,25.35,19.67,21,27.28,50,7.77,29.65-3.49,31.24,5.38,60.52,9,29.9,19,30.83,27,63.32,7.94,33-.23,30.08,8.82,62.71"/><path class="cls-4" d="M175.45,47.64c5.86,28.13-6.88,35.57-.19,63.17,6.93,28.25,19.29,24,26.18,55.5,6.92,32-4.5,33.7,3.24,65.23,7.71,32,17.91,32.71,24.4,67,6.26,34.65-2.05,32.15,5,66.32"/><path class="cls-4" d="M198.59,31.72c5.82,31.09-7,38.19-.63,68.62,6.47,30.95,19,26.82,25.15,60.65,6.1,34.24-5.48,36,1.14,69.59,6.47,34,16.84,34.45,21.77,70.37,4.57,36.2-3.91,34.08,1.17,69.68"/><path class="cls-4" d="M221.76,16.64c5.86,33.83-7,40.58-.93,73.65,6.06,33.47,18.68,29.47,24.21,65.45,5.32,36.28-6.42,38.07-.91,73.61,5.22,35.83,15.76,36,19.13,73.48,2.85,37.61-5.78,35.87-2.73,72.77"/><path class="cls-4" d="M245,2.43c6,36.36-6.94,42.75-1.1,78.25,5.71,35.81,18.46,32,23.37,69.91,4.56,38.15-7.34,40-2.92,77.29,4,37.51,14.7,37.51,16.49,76.3,1.12,38.9-7.66,37.52-6.69,75.6"/><path class="cls-4" d="M268.16-10.88c6.16,38.69-6.79,44.69-1.11,82.44,5.42,37.94,18.28,34.27,22.62,74,3.83,39.84-8.22,41.69-4.89,80.61,2.76,39,13.66,38.84,13.87,78.86-.62,40-9.57,39-10.7,78.16"/><path class="cls-4" d="M291.35-23.25c6.45,40.81-6.55,46.4-1,86.2,5.19,39.89,18.17,36.4,22,77.75,3.15,41.37-9.06,43.22-6.78,83.6,1.53,40.4,12.61,40,11.24,81.12-2.38,41.05-11.5,40.35-14.75,80.44"/><path class="cls-4" d="M314.53-34.63c6.81,42.71-6.23,47.86-.67,89.51,5,41.65,18.1,38.37,21.41,81.15,2.5,42.71-9.86,44.55-8.62,86.22.33,41.61,11.59,41.06,8.63,83.1-4.15,41.91-13.43,41.54-18.83,82.44"/><path class="cls-4" d="M337.67-45c7.26,44.4-5.8,49.11-.2,92.4,4.89,43.22,18.1,40.16,21,84.18,1.89,43.88-10.62,45.69-10.4,88.49-.86,42.67,10.58,42,6,84.79-5.91,42.64-15.36,42.58-22.95,84.17"/><path class="cls-4" d="M360.78-54.33c7.8,45.87-5.29,50.11.42,94.85,4.84,44.58,18.15,41.76,20.63,86.84,1.32,44.87-11.34,46.64-12.12,90.4-2,43.56,9.59,42.71,3.45,86.18-7.68,43.23-17.31,43.47-27.1,85.62"/><path class="cls-4" d="M383.83-62.58c8.43,47.13-4.68,50.89,1.22,96.87,4.86,45.75,18.27,43.18,20.4,89.14.8,45.67-12,47.39-13.76,91.94-3.19,44.3,8.61,43.32.9,87.29-9.46,43.66-19.27,44.19-31.28,86.77"/><path class="cls-4" d="M406.82-69.69c9.15,48.16-4,51.41,2.18,98.43,4.94,46.71,18.45,44.42,20.3,91.07.32,46.3-12.65,47.93-15.33,93.12-4.32,44.87,7.66,43.77-1.63,88.08-11.24,44-21.22,44.77-35.48,87.64"/><path class="cls-4" d="M429.72-75.65c10,49-3.16,51.7,3.33,99.55,5.1,47.48,18.7,45.48,20.31,92.62-.11,46.74-13.22,48.29-16.82,93.94-5.43,45.27,6.73,44.07-4.12,88.58-13,44.11-23.19,45.17-39.7,88.21"/></g><polyline class="cls-6" points="161.6 356.07 195.6 356.07 196.68 356.07 198.25 362.07 201.4 350.07 204.56 362.07 207.71 350.07 210.86 362.07 214.01 350.07 217.17 362.07 220.32 350.07 223.47 362.07 226.63 350.07 229.78 362.07 232.94 350.07 234.52 356.07 234.6 356.07 269.6 356.07"/><text class="cls-7" transform="translate(289.6 360.36)">Europäisches</text><circle class="cls-8" cx="271.1" cy="356.07" r="7"/><path class="cls-9" d="M271.1,352.57a3.5,3.5,0,1,1-3.5,3.5,3.5,3.5,0,0,1,3.5-3.5m0-7a10.5,10.5,0,1,0,10.5,10.5,10.51,10.51,0,0,0-10.5-10.5Z"/><circle class="cls-9" cx="163.1" cy="356.07" r="7"/><path class="cls-8" d="M163.1,352.57a3.5,3.5,0,1,1-3.5,3.5,3.5,3.5,0,0,1,3.5-3.5m0-7a10.5,10.5,0,1,0,10.5,10.5,10.51,10.51,0,0,0-10.5-10.5Z"/><polyline class="cls-6" points="161.6 356.07 195.6 356.07 196.68 356.07 198.25 362.07 201.4 350.07 204.56 362.07 207.71 350.07 210.86 362.07 214.01 350.07 217.17 362.07 220.32 350.07 223.47 362.07 226.63 350.07 229.78 362.07 232.94 350.07 234.52 356.07 234.6 356.07 269.6 356.07"/><line class="cls-6" x1="161.5" y1="356.5" x2="161.47" y2="354.5"/><line class="cls-10" x1="161.4" y1="350.5" x2="158.23" y2="160.68"/><line class="cls-6" x1="158.19" y1="158.68" x2="158.16" y2="156.68"/><line class="cls-6" x1="270.11" y1="185.57" x2="270.12" y2="187.57"/><line class="cls-11" x1="270.16" y1="191.64" x2="271.47" y2="352.46"/><line class="cls-6" x1="271.48" y1="354.5" x2="271.5" y2="356.5"/><text class="cls-7" transform="translate(14.56 360.36)">Amerikanisches</text><circle class="cls-8" cx="271.1" cy="356.07" r="7"/><path class="cls-9" d="M271.1,352.57a3.5,3.5,0,1,1-3.5,3.5,3.5,3.5,0,0,1,3.5-3.5m0-7a10.5,10.5,0,1,0,10.5,10.5,10.51,10.51,0,0,0-10.5-10.5Z"/><circle class="cls-9" cx="163.1" cy="356.07" r="7"/><path class="cls-8" d="M163.1,352.57a3.5,3.5,0,1,1-3.5,3.5,3.5,3.5,0,0,1,3.5-3.5m0-7a10.5,10.5,0,1,0,10.5,10.5,10.51,10.51,0,0,0-10.5-10.5Z"/><path class="cls-8" d="M270.11,192.51a7,7,0,1,1,7-7A7,7,0,0,1,270.11,192.51Z"/><path class="cls-9" d="M270.11,181a4.52,4.52,0,1,1-4.52,4.52,4.52,4.52,0,0,1,4.52-4.52m0-5a9.52,9.52,0,1,0,9.51,9.52,9.53,9.53,0,0,0-9.51-9.52Z"/><path class="cls-9" d="M158.16,162.79a7,7,0,1,1,7-7A7,7,0,0,1,158.16,162.79Z"/><path class="cls-8" d="M158.16,151.26a4.52,4.52,0,1,1-4.51,4.52,4.51,4.51,0,0,1,4.51-4.52m0-5a9.52,9.52,0,1,0,9.51,9.52,9.52,9.52,0,0,0-9.51-9.52Z"/><circle class="cls-12" cx="218.6" cy="321.57" r="18"/><text class="cls-13" transform="translate(214.74 329.36)">1</text></g></g></svg>