<svg xmlns="http://www.w3.org/2000/svg" xmlns:xlink="http://www.w3.org/1999/xlink" viewBox="0 0 420.19 420"><defs><style>.cls-1,.cls-11,.cls-4,.cls-6,.cls-9{fill:none;}.cls-2{isolation:isolate;}.cls-3{clip-path:url(#clip-path);}.cls-11,.cls-4,.cls-6,.cls-9{stroke:#000;stroke-miterlimit:10;}.cls-4{stroke-width:0.98px;}.cls-5{clip-path:url(#clip-path-2);}.cls-7{clip-path:url(#clip-path-3);}.cls-8{font-size:18px;font-family:Helvetica, Helvetica;}.cls-9{stroke-dasharray:4.06 4.06;}.cls-10{fill:#f0f;}.cls-11{stroke-dasharray:3.96 3.96;}.cls-12{letter-spacing:-0.07em;}.cls-13{fill:#e4e6e2;mix-blend-mode:multiply;}.cls-14{font-size:21px;font-family:OSP-DIN, OSP-DIN;}</style><clipPath id="clip-path"><polygon class="cls-1" points="-203.3 85.92 -154.43 58.92 -127.27 107.7 -75.69 129.07 -96.88 180.72 -81.44 234.37 -135.03 250 -167.35 295.53 -212.99 263.38 -268.73 266.5 -272.05 210.76 -309.24 169.13 -267.73 131.79 -258.37 76.75 -203.3 85.92"/></clipPath><clipPath id="clip-path-2"><polygon class="cls-1" points="64 232.87 200.7 259.05 267.59 71.45 95.99 71.45 64 232.87"/></clipPath><clipPath id="clip-path-3"><polygon class="cls-1" points="149.07 221.97 317.76 268.5 328.67 70 199.24 80.18 149.07 221.97"/></clipPath></defs><title>dispositiv-medialitat-medienensemble</title><g class="cls-2"><g id="Layer_1" data-name="Layer 1"><g class="cls-3"><polyline class="cls-4" points="-300.39 238.01 -193.83 244.15 -103.73 186.88 2.85 193.02"/><polyline class="cls-4" points="-295.12 255.74 -188.56 261.88 -98.46 204.61 8.12 210.74"/><polyline class="cls-4" points="-289.86 273.46 -183.29 279.6 -93.19 222.34 13.38 228.47"/><polyline class="cls-4" points="-284.58 291.19 -178.02 297.33 -87.92 240.06 18.65 246.2"/><polyline class="cls-4" points="-279.32 308.92 -172.75 315.06 -82.66 257.79 23.92 263.92"/><polyline class="cls-4" points="-303.03 229.15 -196.46 235.29 -106.37 178.02 0.21 184.16"/><polyline class="cls-4" points="-297.76 246.87 -191.19 253.01 -101.1 195.75 5.48 201.88"/><polyline class="cls-4" points="-292.49 264.6 -185.92 270.74 -95.83 213.47 10.75 219.61"/><polyline class="cls-4" points="-287.22 282.33 -180.66 288.47 -90.56 231.2 16.02 237.33"/><polyline class="cls-4" points="-281.95 300.05 -175.38 306.19 -85.29 248.93 21.29 255.06"/><polyline class="cls-4" points="-276.68 317.78 -170.12 323.92 -80.02 266.65 26.56 272.79"/></g><g class="cls-5"><path class="cls-6" d="M-132,71.5C-34.6,113.55-78.69,175.36,5.54,256.93"/><path class="cls-6" d="M-111.09,64.73C4,111.75-82.58,176.7,13.68,259.56"/><path class="cls-6" d="M-90.15,58C40.41,110-84.88,178,21.83,262.19"/><path class="cls-6" d="M-69.21,51.2C74.71,108.16-85.59,179.37,30,264.83"/><path class="cls-6" d="M-48.27,44.43c155.15,61.93-36.44,136.28,86.39,223"/><path class="cls-6" d="M-27.32,37.66C136.9,104.57-82.23,182,46.26,270.09"/><path class="cls-6" d="M-6.38,30.89C164.8,102.77-78.17,183.38,54.4,272.72"/><path class="cls-6" d="M14.56,24.12c176,76.85-87.08,160.6,48,251.23"/><path class="cls-6" d="M-142.5,74.88c87.81,39.57,66.35,99.81,144,180.73"/><path class="cls-6" d="M-121.56,68.12C-15,112.65-80.84,176,9.61,258.24"/><path class="cls-6" d="M-100.62,61.35c123.08,49.5,16.69,116,118.38,199.53"/><path class="cls-6" d="M-79.68,54.58C57.83,109.06-85.43,178.7,25.9,263.51"/><path class="cls-6" d="M-58.74,47.81C91.06,107.26-85.34,180,34,266.14"/><path class="cls-6" d="M-37.79,41c160,64.42-45.88,140.33,80,227.73"/><path class="cls-6" d="M-16.85,34.28c168,69.39-63.55,148.43,67.18,237.13"/><path class="cls-6" d="M4.09,27.51C177.94,101.87-75.54,184.05,58.47,274"/><path class="cls-6" d="M25,20.74c177.6,79.34-94.13,164.65,41.59,255.93"/><path class="cls-6" d="M35.5,17.36C214.17,99.18-65.28,186.05,70.69,278"/><path class="cls-6" d="M56.44,10.59c179.21,86.79-112.89,176.8,22.39,270"/><path class="cls-6" d="M77.38,3.82C255,95.58-46,188.73,87,283.25"/><path class="cls-6" d="M98.32-2.95c173.89,96.74-132.33,193-3.2,288.83"/><path class="cls-6" d="M119.26-9.72c168,101.71-139.67,201.12-16,298.23"/><path class="cls-6" d="M140.2-16.48c160,106.67-145.42,209.22-28.79,307.63"/><path class="cls-6" d="M46,14c179.21,84.31-107,172.75,28.79,265.33"/><path class="cls-6" d="M66.91,7.2c178.68,89.28-118.34,180.86,16,274.73"/><path class="cls-6" d="M87.85.44c176,94.25-128.07,189,3.2,284.13"/><path class="cls-6" d="M108.79-6.33C280,92.89-27.41,190.73,99.19,287.2"/><path class="cls-6" d="M129.73-13.1C294,91.09-13,192.07,107.34,289.83"/><path class="cls-6" d="M150.67-19.87C305.88,89.3,3,193.41,115.48,292.46"/><path class="cls-6" d="M171.61-26.64c144,114.14-151.06,221.38-48,321.73"/><path class="cls-6" d="M192.55-33.4C323.21,85.7,39.72,196.08,131.77,297.73"/><path class="cls-6" d="M213.49-40.17c115.18,124.08-153,237.59-73.58,340.53"/><path class="cls-6" d="M234.43-46.94C332,82.11,82.82,198.75,148.05,303"/><path class="cls-6" d="M255.37-53.71c77.8,134-148.61,253.8-99.17,359.33"/><path class="cls-6" d="M276.32-60.48c55.9,139-144,261.91-112,368.73"/><path class="cls-6" d="M297.26-67.25c31.88,144-137.86,270-124.78,378.14"/><path class="cls-6" d="M318.2-74C323.91,74.92,188.1,204.1,180.63,313.52"/><path class="cls-6" d="M339.14-80.78C316.55,73.13,218.4,205.44,188.77,316.15"/><path class="cls-6" d="M360.08-87.55c-53,158.88-109.79,294.33-163.17,406.33"/><path class="cls-6" d="M161.14-23.25C311,88.4,11.56,194.07,119.55,293.78"/><path class="cls-6" d="M182.08-30C319.68,86.6,29.94,195.41,127.69,296.41"/><path class="cls-6" d="M203-36.79C326.21,84.81,49.9,196.75,135.84,299"/><path class="cls-6" d="M224-43.56C330.6,83,71.45,198.09,144,301.67"/><path class="cls-6" d="M244.9-50.32c88,131.53-150.31,249.74-92.77,354.63"/><path class="cls-6" d="M265.84-57.09C333,79.42,119.32,200.76,160.27,306.94"/><path class="cls-6" d="M286.79-63.86C331,77.62,145.64,202.1,168.41,309.57"/><path class="cls-6" d="M307.73-70.63C326.79,75.82,173.55,203.43,176.56,312.2"/><path class="cls-6" d="M328.67-77.4C320.5,74,203.05,204.77,184.7,314.83"/><path class="cls-6" d="M349.61-84.17C312.07,72.23,234.14,206.11,192.84,317.47"/></g><g class="cls-7"><path class="cls-6" d="M7.87,88C63.62,120.05,115.63,175.59,171,254.57"/><path class="cls-6" d="M28.81,81.18c77.66,37.07,79.75,95.75,150.36,176"/><path class="cls-6" d="M49.75,74.41c97.43,42.05,53.33,103.86,137.57,185.43"/><path class="cls-6" d="M70.69,67.64c115.06,47,28.5,112,124.77,194.83"/><path class="cls-6" d="M91.63,60.87c130.56,52,5.27,120.07,112,204.23"/><path class="cls-6" d="M112.57,54.1c143.92,57-16.38,128.18,99.18,213.63"/><path class="cls-6" d="M133.51,47.34c155.14,61.93-36.44,136.27,86.38,223"/><path class="cls-6" d="M154.45,40.57C318.68,107.47,99.54,185,228,273"/><path class="cls-6" d="M175.39,33.8c171.18,71.88-71.78,152.49,60.79,241.83"/><path class="cls-6" d="M196.33,27c176,76.85-87.07,160.6,48,251.23"/><path class="cls-6" d="M18.34,84.56c67,34.59,93.55,91.7,156.76,171.33"/><path class="cls-6" d="M39.28,77.79c87.81,39.57,66.34,99.81,144,180.73"/><path class="cls-6" d="M60.22,71c106.51,44.54,40.72,107.92,131.17,190.13"/><path class="cls-6" d="M81.16,64.26c123.08,49.5,16.69,116,118.37,199.53"/><path class="cls-6" d="M102.1,57.49C239.61,112,96.34,181.61,207.68,266.42"/><path class="cls-6" d="M123,50.72C272.84,110.17,96.43,183,215.82,269.05"/><path class="cls-6" d="M144,44c160,64.42-45.87,140.33,80,227.73"/><path class="cls-6" d="M164.92,37.18c168,69.4-63.54,148.44,67.19,237.13"/><path class="cls-6" d="M185.86,30.42C359.72,104.78,106.23,187,240.25,277"/><path class="cls-6" d="M206.8,23.65C384.4,103,112.68,188.29,248.39,279.58"/><path class="cls-6" d="M217.27,20.26C396,102.09,116.5,189,252.47,280.89"/><path class="cls-6" d="M238.21,13.5c179.22,86.79-112.88,176.8,22.4,270"/><path class="cls-6" d="M259.16,6.73c177.61,91.76-123.41,184.91,9.59,279.43"/><path class="cls-6" d="M280.1,0C454,96.7,147.77,193,276.9,288.79"/><path class="cls-6" d="M301-6.81c168,101.71-139.67,201.12-16,298.23"/><path class="cls-6" d="M322-13.58C482,93.1,176.56,195.65,293.18,294.05"/><path class="cls-6" d="M227.74,16.88c179.21,84.31-107,172.75,28.8,265.33"/><path class="cls-6" d="M248.68,10.11c178.69,89.28-118.34,180.86,16,274.73"/><path class="cls-6" d="M269.63,3.34c176,94.25-128.07,189,3.19,284.13"/><path class="cls-6" d="M290.57-3.42C461.79,95.8,154.37,193.64,281,290.11"/><path class="cls-6" d="M311.51-10.19C475.79,94,168.76,195,289.11,292.74"/><path class="cls-6" d="M332.45-17C487.66,92.2,184.75,196.31,297.26,295.37"/><path class="cls-6" d="M353.39-23.73c144,114.14-151.06,221.38-48,321.73"/><path class="cls-6" d="M374.33-30.5C505,88.61,221.49,199,313.54,300.63"/><path class="cls-6" d="M395.27-37.26c115.17,124.08-153,237.59-73.58,340.53"/><path class="cls-6" d="M416.21-44C513.77,85,264.6,201.66,329.83,305.9"/><path class="cls-6" d="M437.15-50.8C515,83.22,288.53,203,338,308.53"/><path class="cls-6" d="M458.09-57.57c55.91,139-144,261.91-112,368.73"/><path class="cls-6" d="M479-64.34c31.88,144-137.85,270-124.77,378.13"/><path class="cls-6" d="M500-71.1C505.69,77.83,369.88,207,362.4,316.43"/><path class="cls-6" d="M520.91-77.87C498.33,76,400.18,208.35,370.55,319.06"/><path class="cls-6" d="M541.85-84.64c-53,158.88-109.79,294.32-163.16,406.33"/><path class="cls-6" d="M342.92-20.34C492.79,91.31,193.34,197,301.33,296.69"/><path class="cls-6" d="M363.86-27.11C501.45,89.51,211.71,198.32,309.47,299.32"/><path class="cls-6" d="M384.8-33.88C508,87.71,231.67,199.66,317.61,302"/><path class="cls-6" d="M405.74-40.65C512.37,85.92,253.22,201,325.76,304.58"/><path class="cls-6" d="M426.68-47.42C514.63,84.12,276.37,202.33,333.9,307.21"/><path class="cls-6" d="M447.62-54.18c67.12,136.5-146.52,257.85-105.57,364"/><path class="cls-6" d="M468.56-60.95C512.72,80.53,327.42,205,350.19,312.48"/><path class="cls-6" d="M489.5-67.72C508.57,78.73,355.33,206.34,358.33,315.11"/><path class="cls-6" d="M510.44-74.49c-8.16,151.42-125.61,282.17-144,392.23"/><path class="cls-6" d="M531.38-81.26C493.85,75.14,415.92,209,374.62,320.37"/></g><polyline class="cls-6" points="142 359.5 176 359.5 177.08 359.5 178.65 365.5 181.8 353.5 184.96 365.5 188.11 353.5 191.26 365.5 194.41 353.5 197.57 365.5 200.72 353.5 203.87 365.5 207.03 353.5 210.18 365.5 213.34 353.5 214.92 359.5 215 359.5 250 359.5"/><text class="cls-8" transform="translate(270 364.8)">Medienensemble</text><polyline class="cls-6" points="142 359.5 176 359.5 177.08 359.5 178.65 365.5 181.8 353.5 184.96 365.5 188.11 353.5 191.26 365.5 194.41 353.5 197.57 365.5 200.72 353.5 203.87 365.5 207.03 353.5 210.18 365.5 213.34 353.5 214.92 359.5 215 359.5 250 359.5"/><line class="cls-6" x1="255.5" y1="164.5" x2="255.46" y2="166.5"/><line class="cls-9" x1="255.38" y1="170.56" x2="251.58" y2="355.47"/><line class="cls-6" x1="251.54" y1="357.5" x2="251.5" y2="359.5"/><circle class="cls-10" cx="251.5" cy="359.5" r="7"/><path d="M251.5,356a3.5,3.5,0,1,1-3.5,3.5,3.5,3.5,0,0,1,3.5-3.5m0-7A10.5,10.5,0,1,0,262,359.5,10.51,10.51,0,0,0,251.5,349Z"/><circle class="cls-10" cx="255.5" cy="164.5" r="6"/><path d="M255.5,161a3.5,3.5,0,1,1-3.5,3.5,3.5,3.5,0,0,1,3.5-3.5m0-5a8.5,8.5,0,1,0,8.5,8.5,8.51,8.51,0,0,0-8.5-8.5Z"/><line class="cls-6" x1="143.5" y1="359.5" x2="143.56" y2="357.5"/><line class="cls-11" x1="143.68" y1="353.54" x2="149.38" y2="165.48"/><line class="cls-6" x1="149.44" y1="163.5" x2="149.5" y2="161.5"/><circle cx="143.5" cy="359.5" r="7"/><path class="cls-10" d="M143.5,356a3.5,3.5,0,1,1-3.5,3.5,3.5,3.5,0,0,1,3.5-3.5m0-7A10.5,10.5,0,1,0,154,359.5,10.51,10.51,0,0,0,143.5,349Z"/><circle cx="149.5" cy="161.5" r="6"/><path class="cls-10" d="M149.5,158a3.5,3.5,0,1,1-3.5,3.5,3.5,3.5,0,0,1,3.5-3.5m0-5a8.5,8.5,0,1,0,8.5,8.5,8.51,8.51,0,0,0-8.5-8.5Z"/><text class="cls-8" transform="translate(41.28 364.8)">Dispositi<tspan class="cls-12" x="68.02" y="0">v</tspan><tspan x="75.69" y="0">,</tspan><tspan x="3.66" y="21.6">Medialität</tspan></text><circle class="cls-13" cx="196" cy="322" r="18"/><text class="cls-14" transform="translate(192.14 329.79)">7</text></g></g></svg>