<svg xmlns="http://www.w3.org/2000/svg" xmlns:xlink="http://www.w3.org/1999/xlink" viewBox="0 0 420.19 420"><defs><style>.cls-1,.cls-10,.cls-11,.cls-4{fill:none;}.cls-2{isolation:isolate;}.cls-3{clip-path:url(#clip-path);}.cls-10,.cls-11,.cls-4{stroke:#000;stroke-miterlimit:10;}.cls-5{clip-path:url(#clip-path-2);}.cls-6{clip-path:url(#clip-path-3);}.cls-7{fill:#ff7b1a;}.cls-8{fill:lime;}.cls-9{font-size:18px;font-family:Helvetica, Helvetica;}.cls-10{stroke-dasharray:4.07 4.07;}.cls-11{stroke-dasharray:3.96 3.96;}.cls-12{fill:#e4e6e2;mix-blend-mode:multiply;}.cls-13{font-size:21px;font-family:OSP-DIN, OSP-DIN;}</style><clipPath id="clip-path"><polygon class="cls-1" points="-313.93 221.97 -145.24 268.5 -134.33 70 -263.76 80.18 -313.93 221.97"/></clipPath><clipPath id="clip-path-2"><polygon class="cls-1" points="314.65 111.92 132.35 111.92 223.5 269.8 314.65 111.92"/></clipPath><clipPath id="clip-path-3"><polygon class="cls-1" points="299.93 110.71 143.16 203.76 302.13 293 299.93 110.71"/></clipPath></defs><title>event-serialitat-und-unterhaltung</title><g class="cls-2"><g id="Layer_1" data-name="Layer 1"><g class="cls-3"><path class="cls-4" d="M-4.91-57.57c55.91,139-144,261.91-112,368.73"/><path class="cls-4" d="M16-64.34c31.88,144-137.85,270-124.77,378.13"/><path class="cls-4" d="M37-71.1C42.69,77.83-93.12,207-100.6,316.43"/><path class="cls-4" d="M57.91-77.87C35.33,76-62.82,208.35-92.45,319.06"/><path class="cls-4" d="M78.85-84.64C25.83,74.24-30.94,209.68-84.31,321.69"/><path class="cls-4" d="M5.56-60.95C49.72,80.53-135.58,205-112.81,312.48"/><path class="cls-4" d="M26.5-67.72C45.57,78.73-107.67,206.34-104.67,315.11"/><path class="cls-4" d="M47.44-74.49C39.28,76.93-78.17,207.68-96.52,317.74"/><path class="cls-4" d="M68.38-81.26C30.85,75.14-47.08,209-88.38,320.37"/></g><g class="cls-5"><path class="cls-4" d="M393-136.57C276.16-56.7,157.85,24.1,40.86,105.17"/><path class="cls-4" d="M389.34-113.24C285.32-52.71,151.81,25.07,44.5,108.15"/><path class="cls-4" d="M385.7-90.17C293.46-46,146.47,28.13,48.15,111.4"/><path class="cls-4" d="M382.05-67.36C300.61-36.68,141.83,33.11,51.79,114.9"/><path class="cls-4" d="M378.41-44.81c-71.62,19.71-240.53,84.65-323,163.47"/><path class="cls-4" d="M374.76-22.52C312-11.45,134.58,48.16,59.08,122.69"/><path class="cls-4" d="M371.12-.49C316.31,4,131.94,57.92,62.72,127"/><path class="cls-4" d="M367.47,21.27C319.7,21.11,129.94,69,66.37,131.53"/><path class="cls-4" d="M363.83,42.77C322.2,39.56,128.55,81.08,70,136.34"/><path class="cls-4" d="M360.18,64c-36.34-4.87-232.41,30.14-286.52,77.4"/><path class="cls-4" d="M391.17-124.87C280.86-55.06,154.74,24.31,42.68,106.63"/><path class="cls-4" d="M387.52-101.67c-98,52-238.47,128-341.2,211.41"/><path class="cls-4" d="M383.88-78.73C297.16-41.62,144.07,30.39,50,113.11"/><path class="cls-4" d="M380.23-56C303.82-31.16,139.77,36.26,53.61,116.75"/><path class="cls-4" d="M376.59-33.63C309.52-18.52,136.15,43.81,57.26,120.64"/><path class="cls-4" d="M372.94-11.47C314.28-3.93,133.18,52.87,60.9,124.8"/><path class="cls-4" d="M369.3,10.42c-51.18,2-238.44,52.87-304.75,118.8"/><path class="cls-4" d="M365.65,32.05C321.06,30.18,129.17,74.88,68.19,133.9"/><path class="cls-4" d="M362,53.43c-38.88-4.21-233.92,34.08-290.17,85.41"/><path class="cls-4" d="M358.36,74.54c-34-5.25-230.76,26.45-282.88,69.51"/><path class="cls-4" d="M356.54,85c-31.91-5.36-229,23-279.24,61.75"/><path class="cls-4" d="M352.89,105.71C324.6,100.79,128,122.48,81,152.34"/><path class="cls-4" d="M349.25,126.17c-25.47-3.79-220.34,11.23-264.66,32"/><path class="cls-4" d="M345.6,146.36c-23.43-2.17-215.2,6.26-257.36,18"/><path class="cls-4" d="M342,166.3C319.8,166,132.42,168,91.88,170.69"/><path class="cls-4" d="M338.32,186c-21.62,1.51-203.36-2.68-242.79-8.63"/><path class="cls-4" d="M354.72,95.39c-30-5.25-227,19.78-275.59,54.12"/><path class="cls-4" d="M351.07,116c-26.78-4.42-222.7,13.92-268.3,39.27"/><path class="cls-4" d="M347.43,136.3c-24.36-3-217.84,8.69-261,24.92"/><path class="cls-4" d="M343.78,156.36c-22.7-1.27-212.43,3.93-253.72,11.11"/><path class="cls-4" d="M340.14,176.17c-21.8.6-206.52-.53-246.43-2.19"/><path class="cls-4" d="M336.49,195.71c-21.61,2.36-200.08-4.83-239.14-15"/><path class="cls-4" d="M332.85,215c-22.14,3.78-193.16-9.15-231.85-27.2"/><path class="cls-4" d="M329.2,234c-23.34,4.61-185.75-13.64-224.56-38.93"/><path class="cls-4" d="M325.56,252.76c-25.21,4.65-177.89-18.47-217.27-50.12"/><path class="cls-4" d="M321.91,271.26c-27.71,3.62-169.57-23.82-210-60.8"/><path class="cls-4" d="M318.27,289.49c-30.84,1.33-160.83-29.82-202.7-71"/><path class="cls-4" d="M314.62,307.47C280.06,305,163,270.81,119.22,226.88"/><path class="cls-4" d="M311,325.18c-38.86-8-142.1-44.49-188.12-89.7"/><path class="cls-4" d="M307.33,342.63c-43.7-15.53-132.14-53.47-180.82-98.29"/><path class="cls-4" d="M303.69,359.81c-49.09-25.24-121.82-63.75-173.54-106.34"/><path class="cls-4" d="M300,376.74c-55-37.4-111.13-75.53-166.24-113.88"/><path class="cls-4" d="M334.67,205.38c-21.79,3.13-196.68-7-235.5-21.14"/><path class="cls-4" d="M331,224.53c-22.66,4.29-189.52-11.36-228.21-33.13"/><path class="cls-4" d="M327.38,243.42c-24.2,4.74-181.87-16-220.92-44.59"/><path class="cls-4" d="M323.74,262C297.35,266.32,150,241,110.11,206.52"/><path class="cls-4" d="M320.09,280.41c-29.2,2.65-165.25-26.73-206.34-65.94"/><path class="cls-4" d="M316.45,298.51c-32.63-.36-156.3-33.12-199-75.83"/><path class="cls-4" d="M312.8,316.35c-36.64-5-146.93-40.43-191.76-85.2"/><path class="cls-4" d="M309.16,333.93c-41.22-11.5-137.17-48.81-184.47-94.05"/><path class="cls-4" d="M305.51,351.25c-46.33-20.09-127-58.43-177.18-102.38"/><path class="cls-4" d="M301.87,368.31c-52-31-116.52-69.45-169.89-110.18"/></g><g class="cls-6"><path class="cls-4" d="M133.47,289.29c14.85,27.79,30,57.26,47.91,86.22,17.61,28.72,38.06,56.93,55.78,76.72"/><path class="cls-4" d="M133.76,279.24C159,336.05,211,408,248.57,438.8"/><path class="cls-4" d="M134.2,269.08c23.72,58.17,88.71,133.58,125.92,156.22"/><path class="cls-4" d="M134.75,258.87c23,58.24,100.51,136.47,137.06,152.8"/><path class="cls-4" d="M135.37,248.67c22.95,57.13,112.56,137.5,148.27,149.2"/><path class="cls-4" d="M136,238.52c23.64,55,124.79,136.81,159.59,145.36"/><path class="cls-4" d="M136.71,228.47c25,51.85,137.11,134.52,171,141.18"/><path class="cls-4" d="M137.38,218.58c27,47.89,149.45,130.71,182.63,136.59"/><path class="cls-4" d="M138,208.88c29.56,43.21,161.75,125.55,194.4,131.54"/><path class="cls-4" d="M138.55,199.4c32.71,37.94,173.92,119.16,206.36,126"/><path class="cls-4" d="M133.6,284.28c14.2,28.53,30.71,59,50.2,88,19.15,28.78,41.28,56.13,59,73.25"/><path class="cls-4" d="M134,274.17c24.37,57.66,82.91,131.41,120.36,157.89"/><path class="cls-4" d="M134.46,264C157.71,322.34,229,399.24,266,418.5"/><path class="cls-4" d="M135.05,253.77c22.87,57.82,106.51,137.21,142.66,151"/><path class="cls-4" d="M135.7,243.58C158.91,299.75,254.35,381,289.62,390.9"/><path class="cls-4" d="M136.37,233.48C160.61,287,267.31,369.34,301.67,376.79"/><path class="cls-4" d="M137.05,223.51c25.91,50,143.28,132.79,176.81,138.93"/><path class="cls-4" d="M137.69,213.7c28.2,45.64,155.62,128.3,188.5,134.13"/><path class="cls-4" d="M138.29,204.11c31.06,40.64,167.85,122.5,200.35,128.83"/><path class="cls-4" d="M138.8,194.75c34.47,35.13,179.93,115.55,212.4,123"/><path class="cls-4" d="M139,190.18c36.37,32.19,185.87,111.68,218.49,119.9"/><path class="cls-4" d="M139.37,181.24c40.54,26.1,197.54,103.27,230.82,113.24"/><path class="cls-4" d="M139.59,172.62c45.16,19.77,208.83,94.05,243.34,106"/><path class="cls-4" d="M139.66,164.32c50.2,13.35,219.66,84.2,256,98.14"/><path class="cls-4" d="M139.56,156.36c55.63,7,229.94,73.89,268.9,89.71"/><path class="cls-4" d="M139.27,148.76c61.43.75,239.59,63.26,281.92,80.69"/><path class="cls-4" d="M139.21,185.67C177.61,214.86,331,293.26,363.84,302.31"/><path class="cls-4" d="M139.5,176.89c42.79,23,203.24,98.75,237.06,109.68"/><path class="cls-4" d="M139.65,168.43C187.27,185,354,257.62,389.31,270.56"/><path class="cls-4" d="M139.63,160.3c52.87,10.14,224.87,79.09,262.45,94"/><path class="cls-4" d="M139.44,152.52c58.49,3.82,234.85,68.6,275.39,85.27"/><path class="cls-4" d="M139.06,145.09c64.44-2.26,244.14,57.89,288.47,76"/><path class="cls-4" d="M138.47,138c70.7-8,252.67,47.15,301.67,66.15"/><path class="cls-4" d="M137.67,131.31c77.22-13.16,260.33,36.54,314.94,55.82"/><path class="cls-4" d="M136.64,125c84-17.71,267.05,26.26,328.28,45"/><path class="cls-4" d="M135.37,118.93c91-21.46,272.73,16.5,341.64,33.86"/><path class="cls-4" d="M133.86,113.23c98.1-24.27,277.26,7.46,355,22.36"/><path class="cls-4" d="M132.11,107.84c105.38-26,280.55-.67,368.22,10.6"/><path class="cls-4" d="M130.1,102.73c112.77-26.48,282.52-7.66,381.37-1.33"/><path class="cls-4" d="M127.84,97.86c58.81-13.17,131.3-16,200.74-16.18,69.85-.07,136.64,2.48,193.59,2.86"/><path class="cls-4" d="M125.33,93.22c62.39-12,134.86-15.79,204.8-18.3,70.41-2.38,138.28-3.44,202.26-7"/><path class="cls-4" d="M122.57,88.74c66-9.89,138-14.29,208.22-19.08,70.72-4.66,139.59-9.72,211.27-18"/><path class="cls-4" d="M138.79,141.51c67.53-5.17,248.51,52.52,295,71.13"/><path class="cls-4" d="M138.1,134.62c73.93-10.64,256.61,41.81,308.29,61"/><path class="cls-4" d="M137.18,128.09c80.58-15.53,263.82,31.34,321.61,50.48"/><path class="cls-4" d="M136,121.9c87.45-19.7,270,21.3,335,39.5"/><path class="cls-4" d="M134.65,116c94.51-23,275.14,11.87,348.31,28.15"/><path class="cls-4" d="M133,110.5C234.74,85.22,412.08,113.77,494.63,127"/><path class="cls-4" d="M131.14,105.25C240.2,78.85,412.85,100.93,506,109.9"/><path class="cls-4" d="M129,100.27c57-13.49,129.38-15.65,198.48-14.68C397,86.67,463.2,90.89,516.88,93"/><path class="cls-4" d="M126.62,95.52c60.6-12.67,133.13-16,202.84-17.4,70.16-1.23,137.51-.43,197.89-1.92"/><path class="cls-4" d="M124,91c64.18-11,136.49-15.21,206.59-18.86,70.6-3.53,139-6.54,206.73-12.36"/></g><circle class="cls-7" cx="274.5" cy="202.5" r="7"/><path class="cls-8" d="M274.5,199a3.5,3.5,0,1,1-3.5,3.5,3.5,3.5,0,0,1,3.5-3.5m0-7A10.5,10.5,0,1,0,285,202.5,10.51,10.51,0,0,0,274.5,192Z"/><text class="cls-9" transform="translate(293 364.8)">Unterhaltung</text><polyline class="cls-4" points="165 361.5 199 361.5 200.08 361.5 201.65 367.5 204.8 355.5 207.96 367.5 211.11 355.5 214.26 367.5 217.41 355.5 220.57 367.5 223.72 355.5 226.87 367.5 230.03 355.5 233.18 367.5 236.34 355.5 237.92 361.5 238 361.5 273 361.5"/><line class="cls-4" x1="166.5" y1="361.5" x2="166.8" y2="359.52"/><line class="cls-10" x1="167.41" y1="355.5" x2="198.89" y2="148.49"/><line class="cls-4" x1="199.2" y1="146.48" x2="199.5" y2="144.5"/><line class="cls-4" x1="274.5" y1="203" x2="274.5" y2="205"/><line class="cls-11" x1="274.5" y1="208.96" x2="274.5" y2="357.52"/><line class="cls-4" x1="274.5" y1="359.5" x2="274.5" y2="361.5"/><text class="cls-9" transform="translate(18.94 364.8)">Event, Serialität</text><circle class="cls-8" cx="166.5" cy="361.5" r="7"/><path class="cls-7" d="M166.5,358a3.5,3.5,0,1,1-3.5,3.5,3.5,3.5,0,0,1,3.5-3.5m0-7A10.5,10.5,0,1,0,177,361.5,10.51,10.51,0,0,0,166.5,351Z"/><circle class="cls-8" cx="199.5" cy="144.5" r="7"/><path class="cls-7" d="M199.5,141a3.5,3.5,0,1,1-3.5,3.5,3.5,3.5,0,0,1,3.5-3.5m0-7A10.5,10.5,0,1,0,210,144.5,10.51,10.51,0,0,0,199.5,134Z"/><circle class="cls-7" cx="274.5" cy="361.5" r="7"/><path class="cls-8" d="M274.5,358a3.5,3.5,0,1,1-3.5,3.5,3.5,3.5,0,0,1,3.5-3.5m0-7A10.5,10.5,0,1,0,285,361.5,10.51,10.51,0,0,0,274.5,351Z"/><circle class="cls-12" cx="217" cy="324" r="18"/><text class="cls-13" transform="translate(213.14 331.79)">8</text></g></g></svg>