<svg xmlns="http://www.w3.org/2000/svg" xmlns:xlink="http://www.w3.org/1999/xlink" viewBox="0 0 420.19 420"><defs><style>.cls-1,.cls-4,.cls-6,.cls-7{fill:none;}.cls-2{isolation:isolate;}.cls-3{clip-path:url(#clip-path);}.cls-4,.cls-6,.cls-7{stroke:#000;stroke-miterlimit:10;}.cls-5{clip-path:url(#clip-path-2);}.cls-6{stroke-dasharray:4.06 4.06;}.cls-7{stroke-dasharray:4.07 4.07;}.cls-8{font-size:18px;font-family:Helvetica, Helvetica;}.cls-9{fill:#fff;}.cls-10{fill:#26aae2;}.cls-11{fill:#e4e6e2;mix-blend-mode:multiply;}.cls-12{font-size:21px;font-family:OSP-DIN, OSP-DIN;}</style><clipPath id="clip-path"><rect class="cls-1" x="170.3" y="74.65" width="199.7" height="199.7"/></clipPath><clipPath id="clip-path-2"><rect class="cls-1" x="63.8" y="74.65" width="199.7" height="199.7" transform="translate(-21.11 22.53) rotate(-7.4)"/></clipPath></defs><title>generationen-und-generationalitat</title><g class="cls-2"><g id="Layer_1" data-name="Layer 1"><g class="cls-3"><path class="cls-4" d="M116.78,42.12Q266-29.19,415.92-25.94"/><path class="cls-4" d="M118.52,80.11Q266,33.81,417.39,35.91"/><path class="cls-4" d="M119.7,92.91A1118.94,1118.94,0,0,1,417,56.39"/><path class="cls-4" d="M121.18,105.79a1370.88,1370.88,0,0,1,294.9-29"/><path class="cls-4" d="M123,118.74A1784.48,1784.48,0,0,1,414.74,97.13"/><path class="cls-4" d="M125,131.76A2594.33,2594.33,0,0,1,413,117.39"/><path class="cls-4" d="M127.39,144.85q138.6-7.62,283.31-7.27"/><path class="cls-4" d="M130.06,158Q266,157.67,408,157.7"/><path class="cls-4" d="M133,171.26q133,6.8,271.81,6.48"/><path class="cls-4" d="M136.28,184.56a2399.71,2399.71,0,0,0,264.93,13.16"/><path class="cls-4" d="M139.85,197.94a1523.51,1523.51,0,0,0,257.28,19.68"/><path class="cls-4" d="M143.71,211.39A1089.29,1089.29,0,0,0,392.6,237.45"/><path class="cls-4" d="M147.86,224.92a828.28,828.28,0,0,0,239.75,32.29"/><path class="cls-4" d="M152.32,238.51Q266,278.73,382.16,276.9"/><path class="cls-4" d="M157.07,252.18Q266,298.64,376.26,296.52"/><path class="cls-4" d="M162.13,265.92Q266,318.45,369.9,316.06"/><path class="cls-4" d="M116.75,35.85Q266-39.75,415.27-36.32"/><path class="cls-4" d="M116.89,48.4q149.1-67,299.56-64"/><path class="cls-4" d="M119.07,86.5A1026,1026,0,0,1,417.23,46.16"/><path class="cls-4" d="M120.4,99.34A1231.58,1231.58,0,0,1,416.58,66.6"/><path class="cls-4" d="M122,112.26A1549.28,1549.28,0,0,1,415.47,87"/><path class="cls-4" d="M124,125.24a2111.68,2111.68,0,0,1,290-18"/><path class="cls-4" d="M126.17,138.3Q266,127,411.88,127.49"/><path class="cls-4" d="M128.68,151.43q137.31-4,280.72-3.78"/><path class="cls-4" d="M131.5,164.63q134.49,3.24,275,3.1"/><path class="cls-4" d="M134.62,177.9Q266,188.21,403.07,187.74"/><path class="cls-4" d="M138,191.24a1874,1874,0,0,0,261.2,16.44"/><path class="cls-4" d="M141.74,204.66a1276.79,1276.79,0,0,0,253.18,22.89"/><path class="cls-4" d="M145.75,218.15a944.24,944.24,0,0,0,244.41,29.19"/><path class="cls-4" d="M150.05,231.71q116,37,234.89,35.36"/><path class="cls-4" d="M154.66,245.34Q266,288.69,379.27,286.72"/><path class="cls-4" d="M159.56,259Q266,308.56,373.14,306.3"/></g><g class="cls-5"><path class="cls-4" d="M-5.47,79.09C89.64,37.43,190.36-11.51,288.18-42.1"/><path class="cls-4" d="M-1.54,91.39C92.36,54.26,192.74,8.17,291.54-21.67"/><path class="cls-4" d="M2.64,104C96.47,80,194.45,54.51,294.37,39.74"/><path class="cls-4" d="M7,116.89C99.52,97.26,196.58,74.26,296.26,60"/><path class="cls-4" d="M11.66,130.06c91-15.43,186.89-36,286.09-49.94"/><path class="cls-4" d="M16.48,143.51c89.26-11.38,183.85-29.67,282.32-43.28"/><path class="cls-4" d="M21.49,157.23c87.39-7.47,180.44-23.58,277.91-36.94"/><path class="cls-4" d="M26.68,171.2c85.34-3.7,176.62-17.73,272.86-30.92"/><path class="cls-4" d="M32,185.41c83.11-.06,172.41-12.11,267.15-25.2"/><path class="cls-4" d="M37.53,199.87c80.7,3.43,167.8-6.75,260.79-19.8"/><path class="cls-4" d="M43.15,214.56c78.12,6.78,162.8-1.61,253.78-14.69"/><path class="cls-4" d="M48.9,229.47c75.34,10,157.38,3.29,246.09-9.88"/><path class="cls-4" d="M54.75,244.59c72.38,13.1,151.55,8,237.72-5.35"/><path class="cls-4" d="M60.69,259.92C129.92,276,206,272.34,289.37,258.82"/><path class="cls-4" d="M66.71,275.45c65.89,18.9,138.64,16.66,218.94,2.87"/><path class="cls-4" d="M64.31,294.26c72.1,25.47,144.44,4.52,217,3.48"/><path class="cls-4" d="M-9.11,47.59C88.83,2.53,188.42-35.2,286.38-52.32"/><path class="cls-4" d="M-3.53,85.2C91,45.82,191.56-1.67,289.91-31.88"/><path class="cls-4" d="M.52,97.65C93.76,62.73,193.89,18,293.1-11.47"/><path class="cls-4" d="M4.81,110.4C98,88.62,195.53,64.38,295.37,49.86"/><path class="cls-4" d="M9.32,123.44c91.74-17.51,188.26-39.29,287.74-53.39"/><path class="cls-4" d="M14.05,136.75c90.12-13.38,185.41-32.81,284.28-46.56"/><path class="cls-4" d="M19,150.34c88.34-9.41,182.19-26.6,280.19-40.07"/><path class="cls-4" d="M24.07,164.18c86.38-5.57,178.57-20.62,275.46-33.89"/><path class="cls-4" d="M29.34,178.28c84.24-1.87,174.56-14.9,270.08-28"/><path class="cls-4" d="M34.76,192.61c81.93,1.7,170.16-9.4,264.06-22.46"/><path class="cls-4" d="M40.32,207.19C119.75,212.31,205.68,203,297.69,190"/><path class="cls-4" d="M46,222c76.75,8.41,160.14.86,250-12.25"/><path class="cls-4" d="M51.81,237c73.89,11.57,154.52,5.66,242-7.57"/><path class="cls-4" d="M57.71,252.23C128.54,266.83,206.19,262.45,291,249"/><path class="cls-4" d="M63.69,267.66c67.59,17.5,142,14.57,223.9.92"/><path class="cls-4" d="M61.41,286.5c73.65,24,147.71,2.39,222.15,1.54"/></g><polyline class="cls-4" points="142 360.5 176 360.5 177.08 360.5 178.65 366.5 181.8 354.5 184.96 366.5 188.11 354.5 191.26 366.5 194.41 354.5 197.57 366.5 200.72 354.5 203.87 366.5 207.03 354.5 210.18 366.5 213.34 354.5 214.92 360.5 215 360.5 250 360.5"/><line class="cls-4" x1="143" y1="360" x2="143.22" y2="358.01"/><line class="cls-6" x1="143.67" y1="353.98" x2="163.06" y2="178.5"/><line class="cls-4" x1="163.28" y1="176.49" x2="163.5" y2="174.5"/><line class="cls-4" x1="270.5" y1="174.5" x2="270.3" y2="176.49"/><line class="cls-7" x1="269.88" y1="180.53" x2="251.91" y2="356.49"/><line class="cls-4" x1="251.7" y1="358.51" x2="251.5" y2="360.5"/><text class="cls-8" transform="translate(12.92 364.8)">Generationen</text><text class="cls-8" transform="translate(270 364.8)">Generationalität</text><circle class="cls-9" cx="251.5" cy="360.5" r="7"/><path class="cls-10" d="M251.5,357a3.5,3.5,0,1,1-3.5,3.5,3.5,3.5,0,0,1,3.5-3.5m0-7A10.5,10.5,0,1,0,262,360.5,10.51,10.51,0,0,0,251.5,350Z"/><circle class="cls-10" cx="143.5" cy="360.5" r="7"/><path class="cls-9" d="M143.5,357a3.5,3.5,0,1,1-3.5,3.5,3.5,3.5,0,0,1,3.5-3.5m0-7A10.5,10.5,0,1,0,154,360.5,10.51,10.51,0,0,0,143.5,350Z"/><circle class="cls-10" cx="163.5" cy="174.5" r="5"/><path class="cls-9" d="M163.5,172a2.5,2.5,0,1,1-2.5,2.5,2.5,2.5,0,0,1,2.5-2.5m0-5a7.5,7.5,0,1,0,7.5,7.5,7.5,7.5,0,0,0-7.5-7.5Z"/><circle class="cls-9" cx="270.5" cy="174.5" r="5"/><path class="cls-10" d="M270.5,172a2.5,2.5,0,1,1-2.5,2.5,2.5,2.5,0,0,1,2.5-2.5m0-5a7.5,7.5,0,1,0,7.5,7.5,7.5,7.5,0,0,0-7.5-7.5Z"/><circle class="cls-11" cx="185" cy="326" r="18"/><text class="cls-12" transform="translate(181.14 332.79)">3</text></g></g></svg>