<svg id="Ebene_1" data-name="Ebene 1" xmlns="http://www.w3.org/2000/svg" viewBox="0 0 421.24 181.36"><defs><style>.cls-1{fill:#1d1d1b;}.cls-2{fill:#c2b579;}</style></defs><title>ihist</title><path class="cls-1" d="M62.34,45.59v90.08H42V45.59Z"/><path class="cls-2" d="M103.1,45.59V80.21h33.55V45.59H157v90.08H136.65V98H103.1v37.69H82.79V45.59Z"/><path class="cls-2" d="M197.72,45.59v90.08H177.41V45.59Z"/><path class="cls-2" d="M216.7,114.69a51.45,51.45,0,0,0,22.59,5.61c9.36,0,14.3-3.87,14.3-9.75,0-5.62-4.27-8.82-15.1-12.57-15-5.34-24.86-13.63-24.86-26.73,0-15.37,13-27,34.08-27,10.29,0,17.64,2,23,4.54l-4.54,16.31a42.15,42.15,0,0,0-18.72-4.28c-8.82,0-13.09,4.14-13.09,8.69,0,5.74,4.94,8.28,16.7,12.69,15.91,5.88,23.26,14.17,23.26,26.87,0,15.1-11.5,27.93-36.22,27.93-10.29,0-20.45-2.81-25.53-5.61Z"/><path class="cls-2" d="M308.38,62.7H284.06V45.59h69.23V62.7H328.7v73H308.38Z"/><path class="cls-1" d="M349.36,124.85c0-7.35,4.94-12.43,12-12.43s11.77,4.94,11.9,12.43c0,7.08-4.81,12.29-12.16,12.29C354.3,137.14,349.36,131.93,349.36,124.85Z"/></svg>