<svg id="Layer_1" data-name="Layer 1" xmlns="http://www.w3.org/2000/svg" viewBox="0 0 298.54 297.89"><defs><style>.cls-1{fill:#fff;;opacity:.7;}</style></defs><title>letter-o</title><path class="cls-1" d="M17,204.75A141.94,141.94,0,0,1,17,93.14a141.87,141.87,0,0,1,76.5-76.49,141.92,141.92,0,0,1,111.6,0,141.87,141.87,0,0,1,76.5,76.49,141.94,141.94,0,0,1,0,111.61,141.87,141.87,0,0,1-76.5,76.49,141.92,141.92,0,0,1-111.6,0A141.87,141.87,0,0,1,17,204.75ZM29,98.22a129.59,129.59,0,0,0,0,101.45,128.24,128.24,0,0,0,69.6,69.59,129.45,129.45,0,0,0,101.44,0,128.24,128.24,0,0,0,69.6-69.59,129.59,129.59,0,0,0,0-101.45A128.24,128.24,0,0,0,200,28.63a129.45,129.45,0,0,0-101.44,0A128.24,128.24,0,0,0,29,98.22ZM41,194.68a116.53,116.53,0,0,1,0-91.47,115.57,115.57,0,0,1,62.52-62.52,116.62,116.62,0,0,1,91.46,0,115.57,115.57,0,0,1,62.52,62.52,116.53,116.53,0,0,1,0,91.47A115.51,115.51,0,0,1,195,257.19a116.51,116.51,0,0,1-91.46,0A115.51,115.51,0,0,1,41,194.68Zm12-86.3a103.71,103.71,0,0,0,0,81.12,103,103,0,0,0,55.71,55.72,103.83,103.83,0,0,0,81.12,0,103,103,0,0,0,55.71-55.72,103.71,103.71,0,0,0,0-81.12,103,103,0,0,0-55.71-55.71,103.71,103.71,0,0,0-81.12,0A103,103,0,0,0,53,108.38Zm17.06,86.48a92.17,92.17,0,0,1,0-91.83,90.61,90.61,0,0,1,33.3-33.3,92.15,92.15,0,0,1,91.82,0,90.61,90.61,0,0,1,33.3,33.3,92.17,92.17,0,0,1,0,91.83,91.55,91.55,0,0,1-158.42,0ZM93.83,93.59q-23,23.05-23,55.35t23,55.35q23,23.06,55.44,23.05t55.44-23.05q23-23,23-55.35t-23-55.35q-23-23-55.44-23T93.83,93.59Zm9.25,101.54a63,63,0,0,1-19.14-46.19q0-27,19.14-46.18t46.19-19.15q27,0,46.19,19.15t19.14,46.18a63,63,0,0,1-19.14,46.19q-19.15,19.16-46.19,19.15T103.08,195.13ZM112.34,112A50.34,50.34,0,0,0,97,148.94a52.37,52.37,0,0,0,52.27,52.27,52.36,52.36,0,0,0,52.26-52.27,52.34,52.34,0,0,0-52.26-52.26A50.35,50.35,0,0,0,112.34,112Z"/></svg>
