<svg id="Layer_1" data-name="Layer 1" xmlns="http://www.w3.org/2000/svg" viewBox="0 0 298.54 297.89"><defs><style>.cls-1{fill:#ee578d;}</style></defs><title>letter-k</title><path class="cls-1" d="M12,18.28H25.05V279.61H12Zm26.14,0H51.18V279.61H38.12Zm26.13,0H77.31V279.61H64.25Zm26.13,0h13.07V279.61H90.38Zm108.52,0H184.39L111.43,150,183.3,279.61h14.51L126,150Zm29.22,0H213.6L140.83,150l71.68,129.58H227L155.35,150Zm29.22,0H242.82L170.05,150l71.68,129.58h14.52L184.57,150Zm29.22,0H272L199.27,150,271,279.61h14.52L213.78,150Z"/></svg>
