<svg id="Layer_1" data-name="Layer 1" xmlns="http://www.w3.org/2000/svg" viewBox="0 0 298.54 297.89"><defs><style>.cls-1{fill:#fff;opacity:.7}</style></defs><title>letter-p</title><path class="cls-1" d="M120.05,208.93H175.4a92.27,92.27,0,0,0,45.46-11.61A88.81,88.81,0,0,0,254.34,165a86.59,86.59,0,0,0,12.53-45.73,81.8,81.8,0,0,0-12.43-43.37,92.39,92.39,0,0,0-33.58-32.4A90.21,90.21,0,0,0,175.4,31.45H31.67V279.71H18.61V18.38H175.4a101.78,101.78,0,0,1,40,8.17A108.12,108.12,0,0,1,248.9,48.41a104.57,104.57,0,0,1,22.59,32.31,92.27,92.27,0,0,1,8.44,38.56,108.56,108.56,0,0,1-8.35,43,91.6,91.6,0,0,1-22.68,32.58,102.44,102.44,0,0,1-33.3,20A114,114,0,0,1,175.4,222H120.05Zm0-26.13H175.4q26.86,0,46.1-17.79t19.23-45.73q0-24.5-19.6-43.1T175.4,57.58H57.81V279.71H44.74V44.51H175.4q31.57,0,55,22.41t23.41,52.36q0,32.67-23.14,54.62t-55.26,22H120.05Zm0-26.14H175.4q16.33,0,27.77-9.8t11.43-27.58q0-13.78-12-24.68T175.4,83.71H83.94v196H70.87V70.64H175.4q20.86,0,36.57,14.7t15.7,33.94q0,23.06-15.25,36.75t-37,13.7H120.05Zm-10,123H97V96.78h78.4a27.36,27.36,0,0,1,18.42,6.62q7.73,6.63,7.71,15.88,0,24.33-26.13,24.32H120.05V130.53H175.4q13.07,0,13.07-11.25a8,8,0,0,0-3.81-6.71,15.49,15.49,0,0,0-9.26-2.73H110.07Z"/></svg>
