<svg id="Layer_1" data-name="Layer 1" xmlns="http://www.w3.org/2000/svg" viewBox="0 0 298.54 327.13"><defs><style>.cls-1{fill:#37ffd1;}</style></defs><title>letter-6</title><path class="cls-1" d="M15.52,126.09q0-28.68,10.8-52.54A112.76,112.76,0,0,1,55.63,33.81,135,135,0,0,1,99,9.13a157.6,157.6,0,0,1,53-8.8q33.93,0,63.25,10.61t49.09,29.67L253.8,48.42q-18-16.7-44.55-25.86A174.52,174.52,0,0,0,152,13.39a149.2,149.2,0,0,0-47.91,7.53,123.07,123.07,0,0,0-39.2,21.42Q48,56.22,38.3,77.82t-9.71,48.27v78.76a110.07,110.07,0,0,0,6.53,38.38,93.55,93.55,0,0,0,18.15,30.58,110.33,110.33,0,0,0,27.49,22,129.23,129.23,0,0,0,34.85,13.52,174.41,174.41,0,0,0,40,4.44,142.67,142.67,0,0,0,44.37-6.8,115.94,115.94,0,0,0,36.39-19A89.28,89.28,0,0,0,260.88,258,83.78,83.78,0,0,0,270,219.37a86.26,86.26,0,0,0-8.71-38.48,87.31,87.31,0,0,0-23-29.49,108.33,108.33,0,0,0-32.39-18.23,109.46,109.46,0,0,0-37.38-6.54A158.5,158.5,0,0,0,117,134.8V121.37a190,190,0,0,1,52.26-7.08,124.26,124.26,0,0,1,42.92,7.53,118.46,118.46,0,0,1,36.3,20.87A98.12,98.12,0,0,1,273.58,176,100.27,100.27,0,0,1,283,219.37,97,97,0,0,1,273,263.19a100.9,100.9,0,0,1-27.32,34.12A129.27,129.27,0,0,1,205.07,319a154.84,154.84,0,0,1-49.45,7.8,176.46,176.46,0,0,1-54.53-8.17,138.94,138.94,0,0,1-44.46-23.41A106.26,106.26,0,0,1,26.5,256.66q-11-23.31-11-51.81Zm26.13,0q0-23.59,8.72-42.74A84.94,84.94,0,0,1,74.14,52a109.59,109.59,0,0,1,35-18.88A135.41,135.41,0,0,1,152,26.46a163.27,163.27,0,0,1,51.9,8q24,8,40.11,22.51l-10.16,8.16q-14.52-12.33-35.84-19a154.27,154.27,0,0,0-46-6.63,121.46,121.46,0,0,0-37.74,5.72A96.72,96.72,0,0,0,83.3,61.66,74.06,74.06,0,0,0,62.34,89q-7.62,16.6-7.62,37.11v78.76q0,20.51,7.9,36.57a68.91,68.91,0,0,0,21.77,26,101,101,0,0,0,31.94,15.06,144.56,144.56,0,0,0,39.29,5.08q37.57,0,62.88-18.6t25.32-49.63q0-21.06-10.8-36.66a65,65,0,0,0-27.67-23.05,91.29,91.29,0,0,0-37.21-7.44A154.66,154.66,0,0,0,117,160.75V147.5a175.85,175.85,0,0,1,51.54-7.8,97.58,97.58,0,0,1,44.37,10.16A80.65,80.65,0,0,1,245,178.35a73.85,73.85,0,0,1,11.89,41,71,71,0,0,1-13.71,42.92q-13.69,18.78-36.65,28.58t-50.91,9.8a152.21,152.21,0,0,1-44.19-6.17,115.65,115.65,0,0,1-36.11-17.88A81.44,81.44,0,0,1,50.64,246.5q-9-18.42-9-41.65Zm26.14,0q0-23.78,11.52-40.74a67.8,67.8,0,0,1,30.22-24.87q18.69-7.89,42.46-7.89,46.09,0,71.5,20.69l-10.34,8q-21.6-15.6-61.16-15.6-31,0-51.08,15.69T80.85,126.09v78.76q0,15.24,5.72,26.49A43.26,43.26,0,0,0,102.81,249a78.35,78.35,0,0,0,23.59,9.43,130.86,130.86,0,0,0,29.22,3q26.85,0,44.46-11.07t17.61-31q0-20.33-14.7-31.31t-35.75-11A131.86,131.86,0,0,0,117,186.7V172.91a158.29,158.29,0,0,1,50.45-8.17q26.49,0,44.91,14.61t18.42,40q0,25.59-21.41,40.38t-53.72,14.79a134.72,134.72,0,0,1-34.12-4.09A90.16,90.16,0,0,1,93.74,258.2a56.48,56.48,0,0,1-19.06-21.77q-6.9-13.62-6.89-31.58Zm26.13,0q0-23.59,16.24-35.48T152,78.72q33.58,0,51.18,10.89l-10.53,8Q180.85,91.8,152,91.79q-20.33,0-32.66,8.08T107,126.09v78.76a32.6,32.6,0,0,0,2.63,13.7,24.09,24.09,0,0,0,6.71,9,28.23,28.23,0,0,0,10.89,5,80.81,80.81,0,0,0,13.07,2.27q6.26.56,15.33.55,35.94,0,35.93-16,0-9.26-7.26-13.43t-18.69-4.18A116.68,116.68,0,0,0,117,211.93V198.86a127.94,127.94,0,0,1,48.81-9.26q16.71,0,27.77,7.17t11.07,22.6q0,14.52-13.7,21.77t-35.3,7.26a145,145,0,0,1-19.42-1.18,77.77,77.77,0,0,1-16.78-4.17,42.71,42.71,0,0,1-13.52-7.8,34,34,0,0,1-8.71-12.53,45.44,45.44,0,0,1-3.27-17.87Z"/></svg>
