<svg id="Layer_1" data-name="Layer 1" xmlns="http://www.w3.org/2000/svg" viewBox="0 0 298.54 297.89"><defs><style>.cls-1{fill:#ee578d;}</style></defs><title>letter-u</title><path class="cls-1" d="M268.68,157.29V11.75h13.07V157.29a122.55,122.55,0,0,1-10.53,50,128.89,128.89,0,0,1-28.31,41.1,134.82,134.82,0,0,1-42.28,27.5,133.8,133.8,0,0,1-102.72,0,134.82,134.82,0,0,1-42.28-27.5,128.89,128.89,0,0,1-28.31-41.1,122.55,122.55,0,0,1-10.53-50V11.75H29.86V157.29a110.18,110.18,0,0,0,16.06,57.89,117.84,117.84,0,0,0,43.55,42.29,119.15,119.15,0,0,0,59.8,15.6,119.15,119.15,0,0,0,59.8-15.6,117.84,117.84,0,0,0,43.55-42.29A110.18,110.18,0,0,0,268.68,157.29Zm-26.13,0V11.75h13.06V157.29a97.62,97.62,0,0,1-14.33,51.45,104.43,104.43,0,0,1-38.84,37.47,109.33,109.33,0,0,1-106.34,0,104.43,104.43,0,0,1-38.84-37.47,97.62,97.62,0,0,1-14.33-51.45V11.75H56V157.29a85.12,85.12,0,0,0,12.52,44.83,91.17,91.17,0,0,0,34,32.75,96.49,96.49,0,0,0,93.46,0,91.17,91.17,0,0,0,34-32.75A85.12,85.12,0,0,0,242.55,157.29Zm-26.13,0V11.75h13.06V157.29q0,31.77-23.59,54.17t-56.62,22.41q-33,0-56.62-22.41T69.06,157.29V11.75H82.12V157.29q0,26.33,19.69,44.92t47.46,18.6q27.58,0,47.37-18.6T216.42,157.29Zm-26.14,0V11.75h13.07V157.29q0,20.69-15.88,35.57t-38.2,14.88q-22.32,0-38.2-14.88T95.19,157.29V11.75h13.07V157.29q0,15.44,12.06,26.41a41.54,41.54,0,0,0,29,11,41.54,41.54,0,0,0,28.95-11Q190.28,172.72,190.28,157.29Z"/></svg>
