<svg xmlns="http://www.w3.org/2000/svg" xmlns:xlink="http://www.w3.org/1999/xlink" viewBox="0 0 420.19 420"><defs><style>.cls-1,.cls-10,.cls-11,.cls-4{fill:none;}.cls-2{isolation:isolate;}.cls-3{clip-path:url(#clip-path);}.cls-10,.cls-11,.cls-4{stroke:#000;stroke-miterlimit:10;}.cls-5{clip-path:url(#clip-path-2);}.cls-6{font-size:18px;font-family:Helvetica, Helvetica;}.cls-7{letter-spacing:-0.02em;}.cls-8{fill:#f0a;}.cls-9{fill:#fef200;}.cls-10{stroke-dasharray:4.07 4.07;}.cls-11{stroke-dasharray:4.03 4.03;}.cls-12{fill:#0df4ff;}.cls-13{fill:#ff0d34;}.cls-14{fill:#e4e6e2;mix-blend-mode:multiply;}.cls-15{font-size:21px;font-family:OSP-DIN, OSP-DIN;}</style><clipPath id="clip-path"><polygon class="cls-1" points="117.98 266.54 240.1 239.3 251.94 114.75 137.13 65 54.35 158.81 117.98 266.54"/></clipPath><clipPath id="clip-path-2"><polygon class="cls-1" points="238.38 75.91 173.53 182.91 255.26 277.65 370.61 229.2 360.18 104.52 238.38 75.91"/></clipPath></defs><title>mainstream-und-avantgarde</title><g class="cls-2"><g id="Layer_1" data-name="Layer 1"><g class="cls-3"><path class="cls-4" d="M419.37,333.48c-28.08-44.52-52-103-73.89-177.27"/><path class="cls-4" d="M400.45,336c-39.26-51.5-46.32-99.65-64.24-184.78"/><path class="cls-4" d="M381.53,338.59C333.65,279.41,342.37,241,327,146.31"/><path class="cls-4" d="M362.61,341.15c-54.11-67.44-30.71-96.81-44.93-199.8"/><path class="cls-4" d="M343.69,343.71c-58.13-76.16-21.14-97.15-35.28-207.31"/><path class="cls-4" d="M324.77,346.27c-60.11-85.2-10.63-98.58-25.63-214.82"/><path class="cls-4" d="M305.85,348.83c-60.23-94.45.64-101-16-222.34"/><path class="cls-4" d="M286.93,351.38C228.27,247.62,299.42,247,280.61,121.54"/><path class="cls-4" d="M268,353.94c-55.58-113,24.75-108.71,3.33-237.35"/><path class="cls-4" d="M249.09,356.5c-51.15-122.17,37.24-113.83,13-244.86"/><path class="cls-4" d="M409.91,334.76c-34-47.91-49.35-101.14-69.06-181"/><path class="cls-4" d="M391,337.31c-43.88-55.26-42.91-98.47-59.41-188.53"/><path class="cls-4" d="M372.07,339.87c-51.28-63.25-35.08-97.07-49.76-196"/><path class="cls-4" d="M353.15,342.43c-56.38-71.75-26-96.84-40.11-203.55"/><path class="cls-4" d="M334.23,345c-59.36-80.64-16-97.73-30.45-211.07"/><path class="cls-4" d="M315.31,347.55c-60.39-89.8-5.08-99.67-20.8-218.58"/><path class="cls-4" d="M296.39,350.1C236.74,251,302.89,247.5,285.24,124"/><path class="cls-4" d="M277.47,352.66c-57.3-108.42,18.58-106.45-1.49-233.6"/><path class="cls-4" d="M258.55,355.22c-53.52-117.64,31-111.17,8.16-241.11"/><path class="cls-4" d="M239.63,357.78c-48.49-126.62,43.52-116.68,17.81-248.62"/><path class="cls-4" d="M230.17,359.06c-45.56-131,49.78-119.71,22.64-252.38"/><path class="cls-4" d="M211.25,361.62c-39-139.41,62.2-126.29,32.29-259.89"/><path class="cls-4" d="M192.33,364.17c-31.58-147.28,74.31-133.5,41.94-267.39"/><path class="cls-4" d="M173.41,366.73C149.87,212.24,259.35,225.45,225,91.82"/><path class="cls-4" d="M154.49,369.29c-15-160.92,96.92-149.58,61.25-282.42"/><path class="cls-4" d="M135.57,371.85c-6.22-166.44,107.05-158.31,70.9-289.93"/><path class="cls-4" d="M220.71,360.34c-42.38-135.26,56-122.92,27.46-256.13"/><path class="cls-4" d="M201.79,362.9C166.42,219.48,270.1,233.08,238.91,99.25"/><path class="cls-4" d="M182.87,365.45c-27.63-151,80.2-137.32,46.77-271.15"/><path class="cls-4" d="M164,368C144.62,210.2,255.47,222.64,220.37,89.35"/><path class="cls-4" d="M145,370.57c-10.65-163.8,102.1-153.89,66.07-286.18"/><path class="cls-4" d="M126.11,373.13C124.35,204.3,237.86,210.31,201.84,79.44"/><path class="cls-4" d="M107.2,375.69c7.15-172.76,120.29-172.09,85.37-301.2"/><path class="cls-4" d="M88.28,378.24c15.93-175.46,127.57-181.64,95-308.7"/><path class="cls-4" d="M69.36,380.8C93.76,204,202.74,189.39,174,64.58"/><path class="cls-4" d="M50.44,383.36C82.82,206.63,188,182,164.77,59.63"/><path class="cls-4" d="M31.52,385.92c39.69-175,139.92-211.34,124-331.24"/><path class="cls-4" d="M12.6,388.48C58.77,216.83,152.9,167.11,146.23,49.73"/><path class="cls-4" d="M-6.32,391C45.31,224.62,132.19,159.68,137,44.77"/><path class="cls-4" d="M-25.24,393.59C30.67,234.37,109.13,152.36,127.7,39.82"/><path class="cls-4" d="M-44.16,396.15C14.67,246.2,83.55,145.2,118.43,34.87"/><path class="cls-4" d="M-63.08,398.71C-2.87,260.24,55.27,138.28,109.16,29.91"/><path class="cls-4" d="M116.66,374.41C119.36,203.47,232.83,207,197.2,77"/><path class="cls-4" d="M97.74,377c11.57-174.27,124.1-176.84,90.2-305"/><path class="cls-4" d="M78.82,379.52C99,203.2,209.49,193,178.67,67.06"/><path class="cls-4" d="M59.9,382.08c28.46-177,135.68-196.35,109.5-320"/><path class="cls-4" d="M41,384.64C77.11,208.54,180,178.31,160.13,57.15"/><path class="cls-4" d="M22.06,387.2c43.05-173.57,140.37-216.35,128.81-335"/><path class="cls-4" d="M3.14,389.76c49-169.28,139.69-226.37,138.46-342.51"/><path class="cls-4" d="M-15.78,392.31C38.15,229.24,121,156,132.33,42.3"/><path class="cls-4" d="M-34.7,394.87C22.85,240,96.67,148.75,123.06,37.34"/><path class="cls-4" d="M-53.62,397.43C6.1,252.94,69.76,141.71,113.8,32.39"/></g><g class="cls-5"><path class="cls-4" d="M-6,77c35.53,38.83,69.43,92.09,104.14,161.36"/><path class="cls-4" d="M12.21,71.11C60,114.84,75.45,161,108.18,241.58"/><path class="cls-4" d="M30.38,65.24C88,115,86.22,154.38,118.18,244.81"/><path class="cls-4" d="M48.54,59.37c65.21,56.79,47.38,89.84,79.64,188.67"/><path class="cls-4" d="M66.71,53.5c70.71,64.65,38,91.86,71.47,197.77"/><path class="cls-4" d="M84.88,47.63c74.26,73.19,27.93,95.13,63.3,206.88"/><path class="cls-4" d="M103,41.76c76,82.27,17.28,99.53,55.13,216"/><path class="cls-4" d="M121.21,35.89c76.13,91.72,6.21,105,47,225.08"/><path class="cls-4" d="M139.37,30c74.74,101.41-5.09,111.38,38.8,234.19"/><path class="cls-4" d="M157.54,24.14c72,111.17-16.47,118.63,30.63,243.29"/><path class="cls-4" d="M3.13,74.05C45.08,115.17,69.62,164.83,103.18,240"/><path class="cls-4" d="M21.29,68.18c53,46.61,59.69,89.31,91.89,175"/><path class="cls-4" d="M39.46,62.31c61.68,53.16,51.73,89.31,83.72,184.12"/><path class="cls-4" d="M57.63,56.44c68.2,60.62,42.8,90.69,75.55,193.22"/><path class="cls-4" d="M75.79,50.56c72.72,68.85,33.06,93.35,67.39,202.33"/><path class="cls-4" d="M94,44.69c75.35,77.68,22.67,97.2,59.22,211.43"/><path class="cls-4" d="M112.12,38.82c76.27,87,11.79,102.13,51,220.53"/><path class="cls-4" d="M130.29,33c75.61,96.55.58,108.06,42.88,229.63"/><path class="cls-4" d="M148.46,27.08C222,133.36,137.68,142,183.17,265.82"/><path class="cls-4" d="M166.62,21.21c70.18,116-22.14,122.54,26.55,247.84"/><path class="cls-4" d="M175.71,18.27c68.06,120.84-27.78,126.64,22.46,252.39"/><path class="cls-4" d="M193.87,12.4c63.08,130.29-38.82,135.31,14.3,261.49"/><path class="cls-4" d="M212,6.53c57.19,139.35-49.47,144.56,6.13,270.6"/><path class="cls-4" d="M230.21.66c50.55,147.87-59.54,154.28-2.05,279.7"/><path class="cls-4" d="M248.37-5.21c43.32,155.71-68.86,164.38-10.21,288.8"/><path class="cls-4" d="M266.54-11.09c35.63,162.71-77.29,174.78-18.38,297.91"/><path class="cls-4" d="M184.79,15.34c65.69,125.6-33.34,130.89,18.38,256.94"/><path class="cls-4" d="M203,9.46c60.23,134.88-44.21,139.88,10.21,266.05"/><path class="cls-4" d="M221.12,3.59c54,143.69-54.58,149.37,2,275.15"/><path class="cls-4" d="M239.29-2.28C286.29,149.61,175,157,233.16,282"/><path class="cls-4" d="M257.46-8.15c39.52,159.32-73.2,169.55-14.3,293.36"/><path class="cls-4" d="M275.62-14C307.29,151.82,194.5,166,253.16,288.44"/><path class="cls-4" d="M293.79-19.89c23.58,171.28-87.89,190.69-30.63,311.56"/><path class="cls-4" d="M312-25.76c15.42,175.5-93.34,201.38-38.79,320.66"/><path class="cls-4" d="M330.12-31.64c7.33,178.36-97.34,212-47,329.77"/><path class="cls-4" d="M348.29-37.51C347.75,142.17,248.6,185,293.15,301.36"/><path class="cls-4" d="M366.45-43.38c-8,179.31-100.24,232.8-63.3,348"/><path class="cls-4" d="M384.62-49.25c-15,177.12-98.84,242.73-71.47,357.08"/><path class="cls-4" d="M402.79-55.12c-21.32,172.93-95.31,252.24-79.64,366.18"/><path class="cls-4" d="M421-61c-26.8,166.61-89.48,261.23-87.8,375.28"/><path class="cls-4" d="M439.12-66.86c-31.32,158-81.21,269.61-96,384.38"/><path class="cls-4" d="M457.29-72.74C422.57,74.22,387,204.55,353.15,320.75"/><path class="cls-4" d="M284.71-17c27.64,168.71-84.66,185.36-26.55,307"/><path class="cls-4" d="M302.87-22.83c19.5,173.56-90.79,196-34.71,316.11"/><path class="cls-4" d="M321-28.7C332.39,148.41,225.5,178,278.16,296.52"/><path class="cls-4" d="M339.2-34.57c3.36,179.21-98.73,217.3-51,334.32"/><path class="cls-4" d="M357.37-40.44C353,139.27,257.17,187.25,298.15,303"/><path class="cls-4" d="M375.54-46.31c-11.6,178.45-99.8,237.81-67.39,352.52"/><path class="cls-4" d="M393.7-52.19c-18.25,175.29-97.34,247.55-75.55,361.63"/><path class="cls-4" d="M411.87-58.06C387.7,112,319.18,198.75,328.15,312.67"/><path class="cls-4" d="M430-63.93C400.85,98.68,344.38,201.58,338.15,315.9"/><path class="cls-4" d="M448.2-69.8C415,83,372.1,203.74,348.15,319.14"/></g><polyline class="cls-4" points="168 359.5 202 359.5 203.08 359.5 204.65 365.5 207.8 353.5 210.96 365.5 214.11 353.5 217.26 365.5 220.41 353.5 223.57 365.5 226.72 353.5 229.87 365.5 233.03 353.5 236.18 365.5 239.34 353.5 240.92 359.5 241 359.5 276 359.5"/><text class="cls-6" transform="translate(296.02 364.8)"><tspan class="cls-7">A</tspan><tspan x="11.69" y="0">vantgarde</tspan></text><circle class="cls-8" cx="277.5" cy="359.5" r="7"/><path class="cls-9" d="M277.5,356a3.5,3.5,0,1,1-3.5,3.5,3.5,3.5,0,0,1,3.5-3.5m0-7A10.5,10.5,0,1,0,288,359.5,10.51,10.51,0,0,0,277.5,349Z"/><circle class="cls-9" cx="169.5" cy="359.5" r="7"/><path class="cls-8" d="M169.5,356a3.5,3.5,0,1,1-3.5,3.5,3.5,3.5,0,0,1,3.5-3.5m0-7A10.5,10.5,0,1,0,180,359.5,10.51,10.51,0,0,0,169.5,349Z"/><polyline class="cls-4" points="168 359.5 202 359.5 203.08 359.5 204.65 365.5 207.8 353.5 210.96 365.5 214.11 353.5 217.26 365.5 220.41 353.5 223.57 365.5 226.72 353.5 229.87 365.5 233.03 353.5 236.18 365.5 239.34 353.5 240.92 359.5 241 359.5 276 359.5"/><line class="cls-4" x1="169.5" y1="359.5" x2="169.28" y2="357.51"/><line class="cls-10" x1="168.82" y1="353.47" x2="148.95" y2="177.51"/><line class="cls-4" x1="148.72" y1="175.49" x2="148.5" y2="173.5"/><line class="cls-4" x1="280.5" y1="174" x2="280.47" y2="176"/><line class="cls-11" x1="280.4" y1="180.03" x2="277.56" y2="355.48"/><line class="cls-4" x1="277.53" y1="357.5" x2="277.5" y2="359.5"/><text class="cls-6" transform="translate(53.97 364.8)">Mainstream</text><circle class="cls-12" cx="277.5" cy="359.5" r="7"/><path class="cls-13" d="M277.5,356a3.5,3.5,0,1,1-3.5,3.5,3.5,3.5,0,0,1,3.5-3.5m0-7A10.5,10.5,0,1,0,288,359.5,10.51,10.51,0,0,0,277.5,349Z"/><circle class="cls-13" cx="169.5" cy="359.5" r="7"/><path class="cls-12" d="M169.5,356a3.5,3.5,0,1,1-3.5,3.5,3.5,3.5,0,0,1,3.5-3.5m0-7A10.5,10.5,0,1,0,180,359.5,10.51,10.51,0,0,0,169.5,349Z"/><circle class="cls-12" cx="280.5" cy="173.5" r="5"/><path class="cls-13" d="M280.5,171a2.5,2.5,0,1,1-2.5,2.5,2.5,2.5,0,0,1,2.5-2.5m0-5a7.5,7.5,0,1,0,7.5,7.5,7.5,7.5,0,0,0-7.5-7.5Z"/><circle class="cls-13" cx="148.5" cy="173.5" r="5"/><path class="cls-12" d="M148.5,171a2.5,2.5,0,1,1-2.5,2.5,2.5,2.5,0,0,1,2.5-2.5m0-5a7.5,7.5,0,1,0,7.5,7.5,7.5,7.5,0,0,0-7.5-7.5Z"/><circle class="cls-14" cx="221" cy="323" r="18"/><text class="cls-15" transform="translate(217.14 330.79)">5</text></g></g></svg>