<svg xmlns="http://www.w3.org/2000/svg" xmlns:xlink="http://www.w3.org/1999/xlink" viewBox="0 0 420.19 420"><defs><style>.cls-1,.cls-11,.cls-12,.cls-4,.cls-6{fill:none;}.cls-2{isolation:isolate;}.cls-3{clip-path:url(#clip-path);}.cls-11,.cls-12,.cls-4,.cls-6{stroke:#000;stroke-miterlimit:10;}.cls-5{clip-path:url(#clip-path-2);}.cls-6{stroke-width:0.98px;}.cls-7{clip-path:url(#clip-path-3);}.cls-8{font-size:18px;font-family:Helvetica, Helvetica;}.cls-9{fill:#f0a;}.cls-10{fill:#fef200;}.cls-11{stroke-dasharray:4.09 4.09;}.cls-12{stroke-dasharray:3.97 3.97;}.cls-13{fill:#a5f249;}.cls-14{fill:#0d73ff;}.cls-15{fill:#e4e6e2;mix-blend-mode:multiply;}.cls-16{font-size:21px;font-family:OSP-DIN, OSP-DIN;}.cls-17{clip-path:url(#clip-path-4);}</style><clipPath id="clip-path"><polygon class="cls-1" points="-199.62 75.91 -264.47 182.91 -182.74 277.65 -67.39 229.2 -77.82 104.52 -199.62 75.91"/></clipPath><clipPath id="clip-path-2"><polygon class="cls-1" points="124.94 90.94 176.63 69.84 197.91 121.46 246.63 148.72 219.54 197.53 228.61 252.62 173.55 261.88 136.14 303.32 94.57 266.05 38.85 262.63 42.07 206.89 10 161.19 55.59 128.96 71.32 75.4 124.94 90.94"/></clipPath><clipPath id="clip-path-3"><polygon class="cls-1" points="246.7 85.92 295.57 58.92 322.73 107.7 374.31 129.07 353.12 180.72 368.56 234.37 314.97 250 282.65 295.53 237.01 263.38 181.27 266.5 177.96 210.76 140.76 169.13 182.27 131.79 191.63 76.75 246.7 85.92"/></clipPath><clipPath id="clip-path-4"><polygon class="cls-1" points="514 232.87 650.7 259.05 717.59 71.45 545.99 71.45 514 232.87"/></clipPath></defs><title>orte-raume-und-lokalitat</title><g class="cls-2"><g id="Layer_1" data-name="Layer 1"><g class="cls-3"><path class="cls-4" d="M1.12-66.86c-31.32,158-81.21,269.61-96,384.38"/><path class="cls-4" d="M19.29-72.74C-15.43,74.22-51,204.55-84.85,320.75"/><path class="cls-4" d="M10.2-69.8C-23,83-65.9,203.74-89.85,319.14"/></g><g class="cls-5"><polyline class="cls-6" points="-7.5 128.81 83.92 130.93 169.3 98.14 260.73 100.26"/><polyline class="cls-6" points="-10.66 110.59 80.76 112.71 166.14 79.92 257.57 82.04"/><polyline class="cls-6" points="-13.83 92.37 77.6 94.48 162.98 61.7 254.41 63.82"/><polyline class="cls-6" points="-12.25 101.48 79.18 103.6 164.56 70.81 255.99 72.93"/><polyline class="cls-6" points="-16.99 74.15 74.44 76.26 159.82 43.48 251.25 45.6"/><polyline class="cls-6" points="-15.41 83.26 76.02 85.38 161.4 52.59 252.83 54.71"/><polyline class="cls-6" points="-9.09 119.7 82.34 121.82 167.72 89.03 259.15 91.15"/><polyline class="cls-6" points="-4.34 147.03 87.08 149.15 172.46 116.36 263.89 118.48"/><polyline class="cls-6" points="-1.18 165.25 90.24 167.37 175.62 134.58 267.05 136.7"/><polyline class="cls-6" points="1.98 183.47 93.4 185.59 178.78 152.8 270.21 154.92"/><polyline class="cls-6" points="5.14 201.69 96.56 203.81 181.94 171.03 273.37 173.14"/><polyline class="cls-6" points="8.3 219.91 99.72 222.03 185.1 189.25 276.53 191.36"/><polyline class="cls-6" points="11.46 238.13 102.88 240.25 188.26 207.47 279.69 209.58"/><polyline class="cls-6" points="14.62 256.35 106.05 258.47 191.42 225.69 282.85 227.81"/><polyline class="cls-6" points="17.78 274.57 109.2 276.69 194.58 243.91 286.01 246.03"/><polyline class="cls-6" points="20.94 292.8 112.36 294.91 197.74 262.13 289.18 264.25"/><polyline class="cls-6" points="24.1 311.02 115.53 313.13 200.9 280.35 292.33 282.47"/><polyline class="cls-6" points="-5.92 137.92 85.5 140.04 170.88 107.25 262.31 109.37"/><polyline class="cls-6" points="-2.77 156.14 88.66 158.26 174.04 125.47 265.47 127.59"/><polyline class="cls-6" points="0.4 174.36 91.82 176.48 177.2 143.69 268.63 145.81"/><polyline class="cls-6" points="3.56 192.58 94.98 194.7 180.36 161.91 271.79 164.03"/><polyline class="cls-6" points="6.72 210.8 98.14 212.92 183.52 180.13 274.95 182.25"/><polyline class="cls-6" points="9.88 229.02 101.3 231.14 186.68 198.36 278.11 200.47"/><polyline class="cls-6" points="13.04 247.24 104.47 249.36 189.84 216.58 281.27 218.69"/><polyline class="cls-6" points="16.2 265.46 107.63 267.58 193 234.8 284.43 236.91"/><polyline class="cls-6" points="19.36 283.68 110.78 285.8 196.16 253.02 287.6 255.14"/><polyline class="cls-6" points="22.52 301.9 113.95 304.02 199.32 271.24 290.75 273.36"/><polyline class="cls-6" points="25.68 320.13 117.11 322.25 202.48 289.46 293.92 291.58"/></g><g class="cls-7"><polyline class="cls-6" points="117.45 131.81 212.78 137.64 289.45 80.68 384.79 86.51"/><polyline class="cls-6" points="112.18 114.08 207.51 119.91 284.18 62.95 379.52 68.78"/><polyline class="cls-6" points="106.91 96.35 202.24 102.19 278.91 45.23 374.25 51.06"/><polyline class="cls-6" points="109.54 105.22 204.87 111.05 281.55 54.09 376.89 59.92"/><polyline class="cls-6" points="101.64 78.63 196.97 84.46 273.64 27.5 368.99 33.33"/><polyline class="cls-6" points="104.27 87.49 199.6 93.33 276.28 36.36 371.62 42.19"/><polyline class="cls-6" points="114.81 122.94 210.14 128.78 286.82 71.81 382.16 77.64"/><polyline class="cls-6" points="123.26 149.38 220.58 155.52 295.88 98.25 408.01 104.39"/><polyline class="cls-6" points="128.27 167.18 229.19 173.18 307.06 116.05 413.53 122.04"/><polyline class="cls-6" points="133.8 184.83 240.37 190.97 321.21 133.7 437.04 139.84"/><polyline class="cls-6" points="139.07 202.56 245.63 208.7 335.73 151.43 442.31 157.57"/><polyline class="cls-6" points="144.34 220.28 250.9 226.42 341 169.16 447.58 175.29"/><polyline class="cls-6" points="149.61 238.01 256.17 244.15 346.27 186.88 452.85 193.02"/><polyline class="cls-6" points="154.88 255.74 261.44 261.88 351.54 204.61 458.12 210.74"/><polyline class="cls-6" points="160.15 273.46 266.71 279.6 356.81 222.34 463.38 228.47"/><polyline class="cls-6" points="165.41 291.19 271.98 297.33 362.07 240.06 468.65 246.2"/><polyline class="cls-6" points="170.68 308.92 277.25 315.06 367.35 257.79 473.92 263.92"/><polyline class="cls-6" points="120.08 140.67 215.41 146.5 292.09 89.54 387.43 95.37"/><polyline class="cls-6" points="125.64 158.31 226.55 164.31 302.57 107.18 410.9 113.18"/><polyline class="cls-6" points="131.16 175.97 237.73 182.11 313.03 124.84 434.4 130.98"/><polyline class="cls-6" points="136.43 193.69 243 199.83 329.4 142.57 439.67 148.7"/><polyline class="cls-6" points="141.7 211.42 248.27 217.56 338.36 160.29 444.94 166.43"/><polyline class="cls-6" points="146.97 229.15 253.54 235.29 343.63 178.02 450.21 184.16"/><polyline class="cls-6" points="152.24 246.87 258.81 253.01 348.9 195.75 455.48 201.88"/><polyline class="cls-6" points="157.51 264.6 264.08 270.74 354.17 213.47 460.75 219.61"/><polyline class="cls-6" points="162.78 282.33 269.35 288.47 359.44 231.2 466.02 237.33"/><polyline class="cls-6" points="168.05 300.05 274.62 306.19 364.71 248.93 471.29 255.06"/><polyline class="cls-6" points="173.32 317.78 279.88 323.92 369.98 266.65 476.56 272.79"/></g><polyline class="cls-4" points="168 361.5 202 361.5 203.08 361.5 204.65 367.5 207.8 355.5 210.96 367.5 214.11 355.5 217.26 367.5 220.41 355.5 223.57 367.5 226.72 355.5 229.87 367.5 233.03 355.5 236.18 367.5 239.34 355.5 240.92 361.5 241 361.5 276 361.5"/><text class="cls-8" transform="translate(296 364.8)">Lokalität</text><circle class="cls-9" cx="277.5" cy="361.5" r="7"/><path class="cls-10" d="M277.5,358a3.5,3.5,0,1,1-3.5,3.5,3.5,3.5,0,0,1,3.5-3.5m0-7A10.5,10.5,0,1,0,288,361.5,10.51,10.51,0,0,0,277.5,351Z"/><polyline class="cls-4" points="168 361.5 202 361.5 203.08 361.5 204.65 367.5 207.8 355.5 210.96 367.5 214.11 355.5 217.26 367.5 220.41 355.5 223.57 367.5 226.72 355.5 229.87 367.5 233.03 355.5 236.18 367.5 239.34 355.5 240.92 361.5 241 361.5 276 361.5"/><line class="cls-4" x1="169.5" y1="361.5" x2="169.04" y2="359.55"/><line class="cls-11" x1="168.11" y1="355.57" x2="129.42" y2="190.44"/><line class="cls-4" x1="128.96" y1="188.45" x2="128.5" y2="186.5"/><line class="cls-4" x1="262.5" y1="179.5" x2="262.66" y2="181.49"/><line class="cls-12" x1="262.99" y1="185.45" x2="277.17" y2="357.53"/><line class="cls-4" x1="277.34" y1="359.51" x2="277.5" y2="361.5"/><text class="cls-8" transform="translate(44.97 364.8)">Orte, Räume</text><circle class="cls-13" cx="277.5" cy="361.5" r="7"/><path class="cls-14" d="M277.5,358a3.5,3.5,0,1,1-3.5,3.5,3.5,3.5,0,0,1,3.5-3.5m0-7A10.5,10.5,0,1,0,288,361.5,10.51,10.51,0,0,0,277.5,351Z"/><circle class="cls-13" cx="262.5" cy="179.5" r="6"/><path class="cls-14" d="M262.5,176a3.5,3.5,0,1,1-3.5,3.5,3.5,3.5,0,0,1,3.5-3.5m0-5a8.5,8.5,0,1,0,8.5,8.5,8.51,8.51,0,0,0-8.5-8.5Z"/><circle class="cls-14" cx="169.5" cy="361.5" r="7"/><path class="cls-13" d="M169.5,358a3.5,3.5,0,1,1-3.5,3.5,3.5,3.5,0,0,1,3.5-3.5m0-7A10.5,10.5,0,1,0,180,361.5,10.51,10.51,0,0,0,169.5,351Z"/><circle class="cls-14" cx="128.5" cy="186.5" r="6"/><path class="cls-13" d="M128.5,183a3.5,3.5,0,1,1-3.5,3.5,3.5,3.5,0,0,1,3.5-3.5m0-5a8.5,8.5,0,1,0,8.5,8.5,8.51,8.51,0,0,0-8.5-8.5Z"/><circle class="cls-15" cx="220" cy="324" r="18"/><text class="cls-16" transform="translate(216.14 331.79)">6</text><g class="cls-17"><path class="cls-4" d="M276.09,85c55.75,32.1,107.76,87.64,163.16,166.63"/><path class="cls-4" d="M297,78.27c77.66,37.08,79.75,95.75,150.37,176"/><path class="cls-4" d="M318,71.5c97.43,42.05,53.34,103.86,137.57,185.43"/><path class="cls-4" d="M338.91,64.73c115.06,47,28.51,112,124.77,194.83"/><path class="cls-4" d="M359.85,58c130.56,52,5.27,120.07,112,204.23"/><path class="cls-4" d="M380.79,51.2c143.92,57-16.38,128.17,99.18,213.63"/><path class="cls-4" d="M401.73,44.43c155.15,61.93-36.44,136.28,86.39,223"/><path class="cls-4" d="M286.56,81.65c67,34.59,93.56,91.7,156.77,171.33"/><path class="cls-4" d="M307.5,74.88c87.81,39.57,66.35,99.81,144,180.73"/><path class="cls-4" d="M328.44,68.12C435,112.65,369.16,176,459.61,258.24"/><path class="cls-4" d="M349.38,61.35c123.08,49.5,16.69,116,118.38,199.53"/><path class="cls-4" d="M370.32,54.58c137.51,54.48-5.75,124.12,105.58,208.93"/><path class="cls-4" d="M391.26,47.81C541.06,107.26,364.66,180,484,266.14"/><path class="cls-4" d="M412.21,41c160,64.42-45.88,140.33,80,227.73"/></g></g></g></svg>