<svg xmlns="http://www.w3.org/2000/svg" xmlns:xlink="http://www.w3.org/1999/xlink" viewBox="0 0 420.19 420"><defs><style>.cls-1,.cls-13,.cls-4,.cls-6,.cls-8,.cls-9{fill:none;}.cls-2{isolation:isolate;}.cls-3{clip-path:url(#clip-path);}.cls-13,.cls-4,.cls-6,.cls-8,.cls-9{stroke:#000;stroke-miterlimit:10;}.cls-4{stroke-width:1.2px;}.cls-5{clip-path:url(#clip-path-2);}.cls-6{stroke-width:0.89px;}.cls-7{clip-path:url(#clip-path-3);}.cls-9{stroke-dasharray:4.01 4.01;}.cls-10{font-size:18px;font-family:Helvetica, Helvetica;}.cls-11{fill:#ff7b1a;}.cls-12{fill:#fff;}.cls-13{stroke-dasharray:4.08 4.08;}.cls-14{fill:#e4e6e2;mix-blend-mode:multiply;}.cls-15{font-size:21px;font-family:OSP-DIN, OSP-DIN;}</style><clipPath id="clip-path"><polygon class="cls-1" points="-128.51 77.05 -247.12 88.5 -296.51 196.95 -227.28 293.95 -108.67 282.49 -59.28 174.04 -128.51 77.05"/></clipPath><clipPath id="clip-path-2"><circle class="cls-1" cx="157" cy="181" r="103"/></clipPath><clipPath id="clip-path-3"><circle class="cls-1" cx="252.5" cy="178" r="105.49"/></clipPath></defs><title>popularkulturelles-und-politisches</title><g class="cls-2"><g id="Layer_1" data-name="Layer 1"><g class="cls-3"><path class="cls-4" d="M-6.86-78.19c10.41,49.3-2.71,51.76,4,100C2.31,69.54,16,67.7,17.47,115,17.16,161.91,4,163.41-.06,209.22c-6,45.41,6.28,44.17-5.36,88.71-13.91,44.13-24.16,45.32-41.81,88.39"/><path class="cls-4" d="M-18.28-75.65c10,49-3.16,51.7,3.33,99.55,5.1,47.48,18.7,45.48,20.31,92.62-.11,46.74-13.22,48.29-16.82,93.94-5.43,45.27,6.73,44.07-4.12,88.58-13,44.11-23.19,45.17-39.7,88.21"/></g><g class="cls-5"><polyline class="cls-6" points="54 107.77 122.67 125.48 191.33 107.77 260 125.48"/><polyline class="cls-6" points="54 90.6 122.67 108.31 191.33 90.6 260 108.31"/><polyline class="cls-6" points="54 73.44 122.67 91.15 191.33 73.44 260 91.15"/><polyline class="cls-6" points="54 82.02 122.67 99.73 191.33 82.02 260 99.73"/><polyline class="cls-6" points="54 56.27 122.67 73.98 191.33 56.27 260 73.98"/><polyline class="cls-6" points="54 64.85 122.67 82.56 191.33 64.85 260 82.56"/><polyline class="cls-6" points="54 99.19 122.67 116.9 191.33 99.19 260 116.9"/><polyline class="cls-6" points="54 124.94 122.67 142.65 191.33 124.94 260 142.65"/><polyline class="cls-6" points="54 142.1 122.67 159.81 191.33 142.1 260 159.81"/><polyline class="cls-6" points="54 159.27 122.67 176.98 191.33 159.27 260 176.98"/><polyline class="cls-6" points="54 176.44 122.67 194.15 191.33 176.44 260 194.15"/><polyline class="cls-6" points="54 193.6 122.67 211.31 191.33 193.6 260 211.31"/><polyline class="cls-6" points="54 210.77 122.67 228.48 191.33 210.77 260 228.48"/><polyline class="cls-6" points="54 227.94 122.67 245.65 191.33 227.94 260 245.65"/><polyline class="cls-6" points="54 245.1 122.67 262.81 191.33 245.1 260 262.81"/><polyline class="cls-6" points="54 262.27 122.67 279.98 191.33 262.27 260 279.98"/><polyline class="cls-6" points="54 279.44 122.67 297.15 191.33 279.44 260 297.15"/><polyline class="cls-6" points="54 116.35 122.67 134.06 191.33 116.35 260 134.06"/><polyline class="cls-6" points="54 133.52 122.67 151.23 191.33 133.52 260 151.23"/><polyline class="cls-6" points="54 150.69 122.67 168.4 191.33 150.69 260 168.4"/><polyline class="cls-6" points="54 167.85 122.67 185.56 191.33 167.85 260 185.56"/><polyline class="cls-6" points="54 185.02 122.67 202.73 191.33 185.02 260 202.73"/><polyline class="cls-6" points="54 202.19 122.67 219.9 191.33 202.19 260 219.9"/><polyline class="cls-6" points="54 219.35 122.67 237.06 191.33 219.35 260 237.06"/><polyline class="cls-6" points="54 236.52 122.67 254.23 191.33 236.52 260 254.23"/><polyline class="cls-6" points="54 253.69 122.67 271.4 191.33 253.69 260 271.4"/><polyline class="cls-6" points="54 270.85 122.67 288.56 191.33 270.85 260 288.56"/><polyline class="cls-6" points="54 288.02 122.67 305.73 191.33 288.02 260 305.73"/></g><g class="cls-7"><line class="cls-8" x1="157.51" y1="-9.83" x2="418.34" y2="48.37"/><line class="cls-8" x1="146.02" y1="41.65" x2="406.85" y2="99.85"/><line class="cls-8" x1="142.19" y1="58.81" x2="403.02" y2="117.01"/><line class="cls-8" x1="138.36" y1="75.97" x2="399.19" y2="134.17"/><line class="cls-8" x1="134.53" y1="93.13" x2="395.36" y2="151.33"/><line class="cls-8" x1="130.7" y1="110.29" x2="391.53" y2="168.49"/><line class="cls-8" x1="126.87" y1="127.45" x2="387.7" y2="185.65"/><line class="cls-8" x1="123.04" y1="144.61" x2="383.87" y2="202.81"/><line class="cls-8" x1="119.21" y1="161.77" x2="380.04" y2="219.97"/><line class="cls-8" x1="115.38" y1="178.93" x2="376.21" y2="237.13"/><line class="cls-8" x1="111.55" y1="196.09" x2="372.38" y2="254.29"/><line class="cls-8" x1="107.72" y1="213.25" x2="368.56" y2="271.45"/><line class="cls-8" x1="103.9" y1="230.41" x2="364.73" y2="288.61"/><line class="cls-8" x1="100.07" y1="247.57" x2="360.9" y2="305.77"/><line class="cls-8" x1="96.24" y1="264.73" x2="357.07" y2="322.93"/><line class="cls-8" x1="100.07" y1="247.57" x2="360.9" y2="305.77"/><line class="cls-8" x1="159.42" y1="-18.41" x2="420.25" y2="39.79"/><line class="cls-8" x1="147.93" y1="33.07" x2="408.76" y2="91.27"/><line class="cls-8" x1="144.1" y1="50.23" x2="404.93" y2="108.43"/><line class="cls-8" x1="140.27" y1="67.39" x2="401.1" y2="125.59"/><line class="cls-8" x1="136.44" y1="84.55" x2="397.28" y2="142.75"/><line class="cls-8" x1="132.62" y1="101.71" x2="393.45" y2="159.91"/><line class="cls-8" x1="128.79" y1="118.87" x2="389.62" y2="177.07"/><line class="cls-8" x1="124.96" y1="136.03" x2="385.79" y2="194.23"/><line class="cls-8" x1="121.13" y1="153.19" x2="381.96" y2="211.39"/><line class="cls-8" x1="117.3" y1="170.35" x2="378.13" y2="228.55"/><line class="cls-8" x1="113.47" y1="187.51" x2="374.3" y2="245.71"/><line class="cls-8" x1="109.64" y1="204.67" x2="370.47" y2="262.87"/><line class="cls-8" x1="105.81" y1="221.83" x2="366.64" y2="280.03"/><line class="cls-8" x1="101.98" y1="238.99" x2="362.81" y2="297.19"/><line class="cls-8" x1="98.15" y1="256.15" x2="358.98" y2="314.35"/><line class="cls-8" x1="94.32" y1="273.31" x2="355.15" y2="331.51"/></g><polyline class="cls-8" points="179 359.5 213 359.5 214.08 359.5 215.65 365.5 218.8 353.5 221.96 365.5 225.11 353.5 228.26 365.5 231.41 353.5 234.57 365.5 237.72 353.5 240.87 365.5 244.03 353.5 247.18 365.5 250.34 353.5 251.92 359.5 252 359.5 287 359.5"/><line class="cls-8" x1="252.5" y1="178.5" x2="252.89" y2="180.46"/><line class="cls-9" x1="253.67" y1="184.4" x2="287.72" y2="355.57"/><line class="cls-8" x1="288.11" y1="357.54" x2="288.5" y2="359.5"/><text class="cls-10" transform="translate(15.92 364.8)">Populärkulturelles</text><text class="cls-10" transform="translate(307 364.8)"><tspan xml:space="preserve"> Politisches</tspan></text><circle class="cls-11" cx="288.5" cy="359.5" r="7"/><path class="cls-12" d="M288.5,356a3.5,3.5,0,1,1-3.5,3.5,3.5,3.5,0,0,1,3.5-3.5m0-7A10.5,10.5,0,1,0,299,359.5,10.51,10.51,0,0,0,288.5,349Z"/><circle class="cls-11" cx="252.5" cy="178" r="5"/><path class="cls-12" d="M252.5,175.5A2.5,2.5,0,1,1,250,178a2.5,2.5,0,0,1,2.5-2.5m0-5A7.5,7.5,0,1,0,260,178a7.5,7.5,0,0,0-7.5-7.5Z"/><line class="cls-8" x1="157.5" y1="181.5" x2="157.76" y2="183.48"/><line class="cls-13" x1="158.28" y1="187.53" x2="179.98" y2="355.49"/><line class="cls-8" x1="180.24" y1="357.52" x2="180.5" y2="359.5"/><circle class="cls-12" cx="180.5" cy="359.5" r="7"/><path class="cls-11" d="M180.5,356a3.5,3.5,0,1,1-3.5,3.5,3.5,3.5,0,0,1,3.5-3.5m0-7A10.5,10.5,0,1,0,191,359.5,10.51,10.51,0,0,0,180.5,349Z"/><circle class="cls-12" cx="157" cy="181" r="5"/><path class="cls-11" d="M157,178.5a2.5,2.5,0,1,1-2.5,2.5,2.5,2.5,0,0,1,2.5-2.5m0-5a7.5,7.5,0,1,0,7.5,7.5,7.5,7.5,0,0,0-7.5-7.5Z"/><circle class="cls-14" cx="232" cy="321.57" r="18"/><text class="cls-15" transform="translate(228.14 328.36)">2</text></g></g></svg>