<svg xmlns="http://www.w3.org/2000/svg" xmlns:xlink="http://www.w3.org/1999/xlink" viewBox="0 0 420.19 420"><defs><style>.cls-1,.cls-4,.cls-6,.cls-8{fill:none;}.cls-2{isolation:isolate;}.cls-3{clip-path:url(#clip-path);}.cls-4,.cls-6,.cls-8{stroke:#000;stroke-miterlimit:10;}.cls-5{clip-path:url(#clip-path-2);}.cls-6{stroke-dasharray:4.01 4.01;}.cls-7{fill:#fef200;}.cls-8{stroke-dasharray:3.93 3.93;}.cls-9{font-size:18px;font-family:Georgia, Georgia;}.cls-10{fill:#e4e6e2;mix-blend-mode:multiply;}.cls-11{font-size:21px;font-family:OSP-DIN, OSP-DIN;}</style><clipPath id="clip-path"><rect class="cls-1" x="53.5" y="71.75" width="190.51" height="190.51" transform="translate(315.76 18.25) rotate(90)"/></clipPath><clipPath id="clip-path-2"><rect class="cls-1" x="163.22" y="59.75" width="190.51" height="190.51" transform="translate(366.32 -126.43) rotate(80.02)"/></clipPath></defs><title>soziale-diversitat-und-transversalitat</title><g class="cls-2"><g id="Layer_1" data-name="Layer 1"><g class="cls-3"><line class="cls-4" x1="253.54" y1="42.38" x2="269.41" y2="283.69"/><line class="cls-4" x1="237.66" y1="42.38" x2="253.54" y2="283.69"/><line class="cls-4" x1="221.78" y1="42.38" x2="237.66" y2="283.69"/><line class="cls-4" x1="205.91" y1="42.38" x2="221.78" y2="283.69"/><line class="cls-4" x1="190.03" y1="42.38" x2="205.91" y2="283.69"/><line class="cls-4" x1="174.16" y1="42.38" x2="190.03" y2="283.69"/><line class="cls-4" x1="158.28" y1="42.38" x2="174.16" y2="283.69"/><line class="cls-4" x1="142.41" y1="42.38" x2="158.28" y2="283.69"/><line class="cls-4" x1="126.53" y1="42.38" x2="142.41" y2="283.69"/><line class="cls-4" x1="110.65" y1="42.38" x2="126.53" y2="283.69"/><line class="cls-4" x1="94.78" y1="42.38" x2="110.65" y2="283.69"/><line class="cls-4" x1="78.9" y1="42.38" x2="94.78" y2="283.69"/><line class="cls-4" x1="63.03" y1="42.38" x2="78.9" y2="283.69"/><line class="cls-4" x1="47.15" y1="42.38" x2="63.03" y2="283.69"/><line class="cls-4" x1="31.27" y1="42.38" x2="47.15" y2="283.69"/><line class="cls-4" x1="15.4" y1="42.38" x2="31.27" y2="283.69"/><line class="cls-4" x1="261.47" y1="42.38" x2="277.35" y2="283.69"/><line class="cls-4" x1="245.6" y1="42.38" x2="261.47" y2="283.69"/><line class="cls-4" x1="229.72" y1="42.38" x2="245.6" y2="283.69"/><line class="cls-4" x1="213.85" y1="42.38" x2="229.72" y2="283.69"/><line class="cls-4" x1="197.97" y1="42.38" x2="213.85" y2="283.69"/><line class="cls-4" x1="182.1" y1="42.38" x2="197.97" y2="283.69"/><line class="cls-4" x1="166.22" y1="42.38" x2="182.1" y2="283.69"/><line class="cls-4" x1="150.34" y1="42.38" x2="166.22" y2="283.69"/><line class="cls-4" x1="134.47" y1="42.38" x2="150.34" y2="283.69"/><line class="cls-4" x1="118.59" y1="42.38" x2="134.47" y2="283.69"/><line class="cls-4" x1="102.72" y1="42.38" x2="118.59" y2="283.69"/><line class="cls-4" x1="86.84" y1="42.38" x2="102.72" y2="283.69"/><line class="cls-4" x1="70.96" y1="42.38" x2="86.84" y2="283.69"/><line class="cls-4" x1="55.09" y1="42.38" x2="70.96" y2="283.69"/><line class="cls-4" x1="39.21" y1="42.38" x2="55.09" y2="283.69"/><line class="cls-4" x1="23.34" y1="42.38" x2="39.21" y2="283.69"/></g><g class="cls-5"><line class="cls-4" x1="352.04" y1="-20.19" x2="397.53" y2="249.01"/><line class="cls-4" x1="324.29" y1="15.93" x2="381.9" y2="251.76"/><line class="cls-4" x1="308.66" y1="18.68" x2="366.26" y2="254.51"/><line class="cls-4" x1="293.02" y1="21.44" x2="350.63" y2="257.27"/><line class="cls-4" x1="277.39" y1="24.19" x2="334.99" y2="260.02"/><line class="cls-4" x1="261.75" y1="26.94" x2="319.36" y2="262.77"/><line class="cls-4" x1="246.11" y1="29.69" x2="303.72" y2="265.52"/><line class="cls-4" x1="230.48" y1="32.45" x2="288.09" y2="268.28"/><line class="cls-4" x1="214.84" y1="35.2" x2="272.45" y2="271.03"/><line class="cls-4" x1="214.98" y1="36.12" x2="256.82" y2="273.78"/><line class="cls-4" x1="199.34" y1="38.87" x2="241.18" y2="276.53"/><line class="cls-4" x1="183.71" y1="41.63" x2="225.54" y2="279.29"/><line class="cls-4" x1="168.07" y1="44.38" x2="209.91" y2="282.04"/><line class="cls-4" x1="136.67" y1="48.96" x2="190.61" y2="253.25"/><line class="cls-4" x1="121.03" y1="51.71" x2="174.98" y2="256"/><line class="cls-4" x1="105.4" y1="54.47" x2="159.34" y2="258.75"/><line class="cls-4" x1="347.75" y1="11.8" x2="389.58" y2="249.46"/><line class="cls-4" x1="347.88" y1="12.72" x2="389.72" y2="250.38"/><line class="cls-4" x1="316.47" y1="17.31" x2="374.08" y2="253.14"/><line class="cls-4" x1="300.84" y1="20.06" x2="358.45" y2="255.89"/><line class="cls-4" x1="285.2" y1="22.81" x2="342.81" y2="258.64"/><line class="cls-4" x1="269.57" y1="25.56" x2="327.18" y2="261.39"/><line class="cls-4" x1="253.93" y1="28.32" x2="311.54" y2="264.15"/><line class="cls-4" x1="238.3" y1="31.07" x2="295.9" y2="266.9"/><line class="cls-4" x1="222.66" y1="33.82" x2="280.27" y2="269.65"/><line class="cls-4" x1="207.03" y1="36.57" x2="264.63" y2="272.4"/><line class="cls-4" x1="207.16" y1="37.5" x2="249" y2="275.16"/><line class="cls-4" x1="191.53" y1="40.25" x2="233.36" y2="277.91"/><line class="cls-4" x1="175.89" y1="43" x2="217.73" y2="280.66"/><line class="cls-4" x1="160.25" y1="45.75" x2="202.09" y2="283.41"/><line class="cls-4" x1="128.85" y1="50.34" x2="182.8" y2="254.63"/><line class="cls-4" x1="113.21" y1="53.09" x2="167.16" y2="257.38"/></g><polyline class="cls-4" points="165 359.5 199 359.5 200.08 359.5 201.65 365.5 204.8 353.5 207.96 365.5 211.11 353.5 214.26 365.5 217.41 353.5 220.57 365.5 223.72 353.5 226.87 365.5 230.03 353.5 233.18 365.5 236.34 353.5 237.92 359.5 238 359.5 273 359.5"/><line class="cls-4" x1="166" y1="359" x2="165.82" y2="357.01"/><line class="cls-6" x1="165.45" y1="353.02" x2="148.86" y2="171.49"/><line class="cls-4" x1="148.68" y1="169.49" x2="148.5" y2="167.5"/><circle cx="148.5" cy="167.5" r="5"/><path class="cls-7" d="M148.5,165a2.5,2.5,0,1,1-2.5,2.5,2.5,2.5,0,0,1,2.5-2.5m0-5a7.5,7.5,0,1,0,7.5,7.5,7.5,7.5,0,0,0-7.5-7.5Z"/><line class="cls-4" x1="258.5" y1="155.5" x2="258.66" y2="157.49"/><line class="cls-8" x1="258.96" y1="161.42" x2="274.19" y2="355.55"/><line class="cls-4" x1="274.34" y1="357.51" x2="274.5" y2="359.5"/><text class="cls-9" transform="translate(6.32 364.8)">Soziale Diversität</text><text class="cls-9" transform="translate(293.14 364.8)">Transversalität</text><circle class="cls-7" cx="274.5" cy="359.5" r="7"/><path d="M274.5,356a3.5,3.5,0,1,1-3.5,3.5,3.5,3.5,0,0,1,3.5-3.5m0-7A10.5,10.5,0,1,0,285,359.5,10.51,10.51,0,0,0,274.5,349Z"/><circle class="cls-7" cx="258.5" cy="155.5" r="5"/><path d="M258.5,153a2.5,2.5,0,1,1-2.5,2.5,2.5,2.5,0,0,1,2.5-2.5m0-5a7.5,7.5,0,1,0,7.5,7.5,7.5,7.5,0,0,0-7.5-7.5Z"/><circle cx="166.5" cy="359.5" r="7"/><path class="cls-7" d="M166.5,356a3.5,3.5,0,1,1-3.5,3.5,3.5,3.5,0,0,1,3.5-3.5m0-7A10.5,10.5,0,1,0,177,359.5,10.51,10.51,0,0,0,166.5,349Z"/><circle class="cls-10" cx="219" cy="324" r="18"/><text class="cls-11" transform="translate(215.14 330.79)">4</text></g></g></svg>