<svg id="Layer_1" data-name="Layer 1" xmlns="http://www.w3.org/2000/svg" viewBox="0 0 228.25 191.08"><defs><style>.cls-1{fill:#1d1d1b;}.cls-2{fill:none;stroke:#1d1d1b;stroke-width:1.42px;}</style></defs><title>unilu</title><path class="cls-1" d="M26.11,146.25c-4.25,0-7.21-2.73-7.21-7.29V127.47h2.56V139c0,3.57,2.22,4.91,4.65,4.91s4.74-1.36,4.74-4.91V127.47h2.5V139A7,7,0,0,1,26.11,146.25Z"/><path class="cls-1" d="M50.84,146l-9.69-13.39-.33-.51s0,.41,0,.61V146H38.34V127.47h2.15l9.57,13.14a5.48,5.48,0,0,1,.33.53s0-.38,0-.61V127.47h2.53V146Z"/><path class="cls-1" d="M58,146V127.47h2.53V146Z"/><path class="cls-1" d="M72.43,146H70.86l-6.5-18.48h2.45l4.68,13.34a6.21,6.21,0,0,1,.16.63,5.25,5.25,0,0,1,.15-.63l4.71-13.34h2.4Z"/><path class="cls-1" d="M82.76,146V127.47H93.08v2.38H85.29v5.9h7.62v2.38H85.29v5.44h8.28V146Z"/><path class="cls-1" d="M108.07,146l-7.47-8.63V146H98.07V127.47h6a5.42,5.42,0,0,1,5.72,5.44,5.34,5.34,0,0,1-5.26,5.29l6.81,7.75Zm-4.48-16.1h-3v6.35h2.94a3.2,3.2,0,1,0,0-6.35Z"/><path class="cls-1" d="M119.48,146.25a8.2,8.2,0,0,1-5.41-1.87l1.44-1.95a6.14,6.14,0,0,0,3.85,1.37c1.87,0,3.16-.84,3.16-2.59,0-1.56-1.44-2.43-3.09-3.26-2.63-1.34-5.31-2.51-5.31-6,0-2.74,2-4.76,5.34-4.76a8.5,8.5,0,0,1,5,1.57l-1.36,2.07a5.51,5.51,0,0,0-3.65-1.16c-1.44,0-2.66.73-2.66,2.12,0,2,1.78,2.69,4,3.83,2.1,1,4.33,2.38,4.33,5.46C125.15,144.38,122.57,146.25,119.48,146.25Z"/><path class="cls-1" d="M129.3,146V127.47h2.53V146Z"/><path class="cls-1" d="M142.31,129.85V146h-2.53v-16.1H136v-2.38h10.23v2.38Z"/><path class="cls-1" d="M150.41,146V127.47h10.33v2.38h-7.8v5.9h7.62v2.38h-7.62v5.44h8.28V146Zm6-19.95H154l2.35-3.72h2.43Z"/><path class="cls-1" d="M180.43,146H176V127.47h4.71c6.3,0,9.87,4.15,9.87,9.19S186.76,146,180.43,146Zm.18-16.2h-2.13v13.92h1.65c5.46,0,7.77-3.54,7.77-7A6.91,6.91,0,0,0,180.61,129.75Z"/><path class="cls-1" d="M202,146.25c-4.25,0-7.21-2.73-7.21-7.29V127.47h2.55V139c0,3.57,2.23,4.91,4.66,4.91s4.73-1.36,4.73-4.91V127.47h2.51V139A7,7,0,0,1,202,146.25Z"/><line class="cls-2" x1="17.01" y1="113.81" x2="211.12" y2="113.81"/><path class="cls-1" d="M19,178.06V159.58h2.53v16.1h7v2.38Z"/><path class="cls-1" d="M40.53,178.37c-4.26,0-7.22-2.74-7.22-7.29v-11.5h2.56v11.5c0,3.56,2.23,4.91,4.66,4.91s4.73-1.37,4.73-4.91v-11.5h2.51v11.5A7,7,0,0,1,40.53,178.37Z"/><path class="cls-1" d="M65.46,178.06l-4.13-6.3c-.3-.46-.78-1.29-.78-1.29s-.48.81-.84,1.34l-4.1,6.25H52.68l6.4-9.74-5.67-8.74h3.11l3.55,5.47c.27.43.58,1,.58,1a11.68,11.68,0,0,1,.61-1l3.56-5.42h2.92l-5.65,8.61,6.43,9.87Z"/><path class="cls-1" d="M73.51,178.06V159.58H83.83V162H76v5.9h7.62v2.38H76v5.44h8.27v2.38Z"/><path class="cls-1" d="M106.31,178.06V164.47a6.41,6.41,0,0,1,0-.71,3.68,3.68,0,0,1-.25.43l-5.8,7.82h-1l-5.85-7.62a3.29,3.29,0,0,1-.25-.4,5.57,5.57,0,0,1,0,.68v13.39H90.72V159.58h2.15l7,9,6.76-9h2.25v18.48Z"/><path class="cls-1" d="M121.39,178.06h-5.54V159.58h4.89c3.13,0,5.36,1.93,5.36,4.81a4.78,4.78,0,0,1-2.13,4.26,4.7,4.7,0,0,1,3.12,4.4C127.09,175.35,125.47,178.06,121.39,178.06ZM120.3,162h-1.92v5.85h1.7c2.76,0,3.39-1.67,3.39-3.21S122.38,162,120.3,162Zm1.07,8.23h-3v5.49h2.73c2.28,0,3.35-1.11,3.35-2.83S123.24,170.19,121.37,170.19Z"/><path class="cls-1" d="M140.83,178.37a9.35,9.35,0,0,1-9.49-9.6,9.47,9.47,0,1,1,18.93,0A9.43,9.43,0,0,1,140.83,178.37Zm-.1-16.61c-4,0-6.76,3-6.76,7a7,7,0,0,0,6.86,7.11,6.79,6.79,0,0,0,6.81-7.16A6.69,6.69,0,0,0,140.73,161.76Z"/><path class="cls-1" d="M162.47,178.37c-4.25,0-7.21-2.74-7.21-7.29v-11.5h2.55v11.5c0,3.56,2.23,4.91,4.66,4.91s4.73-1.37,4.73-4.91v-11.5h2.51v11.5A7,7,0,0,1,162.47,178.37Z"/><path class="cls-1" d="M185.45,178.06,178,169.43v8.63h-2.53V159.58h6a5.43,5.43,0,0,1,5.72,5.45,5.35,5.35,0,0,1-5.27,5.29l6.81,7.74ZM181,162h-3v6.36h2.93A3.2,3.2,0,1,0,181,162Z"/><path class="cls-1" d="M201.07,178.37a9.49,9.49,0,0,1-9.37-9.55,9.25,9.25,0,0,1,9.39-9.54,9.68,9.68,0,0,1,6.81,2.51l-1.54,1.87a7.7,7.7,0,0,0-5.32-1.9c-3.72,0-6.7,2.81-6.7,7.09a7,7,0,0,0,6.81,7,5.43,5.43,0,0,0,5.44-3.72H201v-2.38h8.5A8.48,8.48,0,0,1,201.07,178.37Z"/><path class="cls-1" d="M160.41,18a7,7,0,0,1-6.28-3.91h-.8V93.12a7.07,7.07,0,0,0,14.14,0V14.05h-.8A7,7,0,0,1,160.41,18Z"/><path class="cls-1" d="M109.57,35.45a7,7,0,0,1-6.25-3.92h-.81V93.12a7.06,7.06,0,0,0,14.12,0V31.53h-.8A6.94,6.94,0,0,1,109.57,35.45Z"/><path class="cls-1" d="M102.51,21.23a7.08,7.08,0,1,1,7.08,7.08A7.07,7.07,0,0,1,102.51,21.23Z"/><path class="cls-1" d="M26,100.18h0a7.06,7.06,0,0,1-7.06-7.06V38.58a7.05,7.05,0,0,1,7.06-7h0a7.06,7.06,0,0,1,7.07,7v61.6Z"/><path class="cls-1" d="M36.86,100.18h0V38.58a7,7,0,0,1,7-7h0a7.05,7.05,0,0,1,7.06,7v61.6h0c-3.35,0-4.11-3.88-4.11-7.66h0c0,3.9-3.16,7.66-7.06,7.66h-3"/><path class="cls-1" d="M85.75,31.52h0a7.06,7.06,0,0,1,7.06,7.07V93.12a7.06,7.06,0,0,1-7.06,7.06h0a7.06,7.06,0,0,1-7.06-7.06V31.52Z"/><path class="cls-1" d="M74.87,31.52h0v61.6a7.06,7.06,0,0,1-7.06,7.06h0a7.07,7.07,0,0,1-7.07-7.06V31.52h0c3.34,0,4.11,3.88,4.11,7.66h0c0-3.9,3.16-7.66,7.06-7.66h3"/><path class="cls-1" d="M184.28,100.18h0a7.07,7.07,0,0,1-7.06-7.06V38.58a7.07,7.07,0,0,1,7.06-7.06h0a7.06,7.06,0,0,1,7.06,7.06v61.6Z"/><path class="cls-1" d="M195.17,100.18h0V38.58a7.06,7.06,0,0,1,7.05-7.06h0a7.07,7.07,0,0,1,7.07,7.06v61.6h0c-3.34,0-4.12-3.88-4.12-7.66h0c0,3.9-3.16,7.66-7.06,7.66h-3"/><path class="cls-1" d="M128,93.11a7.08,7.08,0,1,1,7.08,7.07A7.08,7.08,0,0,1,128,93.11Z"/></svg>